<svg width="252" height="53" viewBox="0 0 252 53" fill="none" xmlns="http://www.w3.org/2000/svg">
<path d="M52.4543 0.280368C52.4543 0.535248 51.7747 0.977041 50.4153 1.60574C49.005 2.23445 47.4587 2.77819 45.7765 3.23698C42.8538 5.66684 40.3815 8.31759 38.3595 11.1892C36.3544 14.0609 34.1285 18.1305 31.6816 23.398H32.3188C35.1905 23.398 37.6033 22.336 39.5574 20.212C40.5259 19.1585 41.2056 17.7651 41.5964 16.032C41.6644 15.7601 41.7664 15.6242 41.9023 15.6242C42.0552 15.6242 42.1317 15.7091 42.1317 15.879C42.1317 17.7821 41.0867 19.5833 38.9967 21.2825C36.9236 22.9647 34.7147 23.8058 32.3698 23.8058C32.0129 23.8058 31.7156 23.7888 31.4777 23.7548C31.3757 23.9757 30.866 25.0207 29.9484 26.8899C27.8244 31.2228 26.0318 34.3239 24.5704 36.193C23.1261 38.0621 21.2485 39.7273 18.9376 41.1886C15.2503 43.5165 11.4781 44.6805 7.62092 44.6805C5.39496 44.6805 3.56832 44.1792 2.14099 43.1767C0.713664 42.1742 0 40.8998 0 39.3535C0 38.5039 0.246384 37.7817 0.739152 37.187C1.21493 36.5923 1.80115 36.2949 2.49783 36.2949C3.6193 36.2949 4.18003 36.8642 4.18003 38.0026C4.18003 39.362 3.56832 40.0417 2.3449 40.0417C1.46131 40.0417 0.994033 39.4894 0.943057 38.3849C0.943057 38.317 0.926065 38.2575 0.892081 38.2065C0.603216 38.2065 0.458784 38.6143 0.458784 39.43C0.458784 40.7723 1.13846 41.8938 2.49783 42.7944C3.84019 43.7119 5.5309 44.1707 7.56994 44.1707C11.9199 44.1707 15.6751 42.3951 18.8356 38.8437C20.0761 37.4504 21.2655 35.7767 22.404 33.8226C24.2561 30.5431 26.1167 27.2552 27.9858 23.9587L28.3936 23.2451C26.6775 22.7183 25.3096 21.7923 24.2901 20.4669C23.2706 19.1245 22.7608 17.5952 22.7608 15.879C22.7608 12.8205 24.0267 10.2632 26.5585 8.20714C28.0538 7.00071 29.5576 6.1596 31.0699 5.68383C32.5992 5.20805 35.3434 4.72378 39.3025 4.23101C41.0357 4.02711 43.1087 3.62779 45.5216 3.03307C48.6821 1.01102 50.8741 0 52.0975 0C52.3354 0 52.4543 0.093456 52.4543 0.280368ZM45.0373 3.44088C43.8819 3.72975 42.3186 4.09507 40.3475 4.53687C37.153 5.25053 34.7232 5.9557 33.058 6.65237C31.3927 7.34904 29.872 8.2836 28.4956 9.45605C25.573 11.9539 24.1117 14.5791 24.1117 17.3318C24.1117 20.0166 25.607 21.8602 28.5976 22.8627C33.6952 13.6361 39.1751 7.16213 45.0373 3.44088Z" fill="#323232"/>
<path d="M52.6837 27.578C52.6837 27.8499 52.1825 28.4871 51.1799 29.4896C49.6846 30.9849 48.3083 31.7326 47.0509 31.7326C46.5241 31.7326 46.0568 31.6306 45.649 31.4267C43.4061 34.6042 41.2991 36.193 39.328 36.193C38.3085 36.193 37.4334 35.7767 36.7027 34.9441C35.9891 34.0945 35.6322 33.0834 35.6322 31.911C35.6322 29.2942 37.3484 26.7709 40.7808 24.3411C43.1937 22.6249 45.1818 21.7668 46.745 21.7668C48.2063 21.7668 48.937 22.5484 48.937 24.1117C48.937 26.0657 47.909 28.4191 45.8529 31.1718C46.1928 31.3757 46.5751 31.4777 46.9999 31.4777C47.7645 31.4777 48.6566 31.1209 49.6761 30.4072C50.6957 29.6935 51.5283 28.8354 52.174 27.8329C52.3609 27.595 52.4968 27.4761 52.5818 27.4761C52.6497 27.4761 52.6837 27.5101 52.6837 27.578ZM48.5547 24.1626C48.5547 22.7863 47.9345 22.0981 46.694 22.0981C45.1478 22.0981 43.2617 23.5764 41.0357 26.533C38.8097 29.4896 37.6968 31.979 37.6968 34.001C37.6968 35.1735 38.2575 35.7597 39.379 35.7597C41.2141 35.7597 43.2192 34.2474 45.3942 31.2228C44.9014 30.6791 44.655 30.1183 44.655 29.5406C44.655 28.708 44.9863 27.8499 45.649 26.9663C46.3117 26.0827 46.9574 25.6409 47.5861 25.6409C47.858 25.6409 48.0449 25.8109 48.1469 26.1507C48.4187 25.556 48.5547 24.8933 48.5547 24.1626Z" fill="#323232"/>
<path d="M68.7667 27.629C68.7667 27.8839 67.8321 29.0478 65.963 31.1209C63.89 33.3978 61.1882 35.4538 57.8578 37.289L56.6089 39.5319C54.145 43.9498 51.5708 47.2378 48.886 49.3958C46.1163 51.6217 43.7119 52.7347 41.6729 52.7347C40.9762 52.7347 40.3985 52.5138 39.9397 52.072C39.4639 51.6302 39.2261 51.0865 39.2261 50.4408C39.2261 47.0254 43.1597 43.4911 51.027 39.8378C51.6727 39.5149 52.6412 39.0646 53.9326 38.4869L54.315 38.2575L58.8008 30.2798C57.0337 32.7096 55.7508 34.3069 54.9522 35.0715C54.1535 35.8192 53.3464 36.193 52.5308 36.193C51.8341 36.193 51.2224 35.8956 50.6957 35.3009C50.1859 34.7062 49.931 34.0095 49.931 33.2109C49.931 32.2423 50.5342 30.7301 51.7407 28.674L55.6658 22.0471C56.0566 22.1151 56.5069 22.1491 57.0167 22.1491C57.4585 22.1491 58.0702 22.0896 58.8518 21.9707L53.8307 30.1268C52.4034 32.4377 51.6897 33.95 51.6897 34.6637C51.6897 35.4283 52.038 35.8107 52.7347 35.8107C54.5698 35.8107 57.3905 32.5567 61.1967 26.0488L63.5416 22.0471C63.9324 22.1151 64.4082 22.1491 64.9689 22.1491C65.4277 22.1491 65.997 22.0896 66.6766 21.9707C64.5696 25.3181 61.715 30.2288 58.1127 36.7027C60.1857 35.6322 61.9359 34.4768 63.3632 33.2364C64.7905 31.979 66.3878 30.2118 68.155 27.9349C68.3928 27.629 68.5458 27.4761 68.6137 27.4761C68.7157 27.4761 68.7667 27.5271 68.7667 27.629ZM54.0601 38.6908C53.7882 38.8437 52.8282 39.328 51.1799 40.1436C43.4486 43.9838 39.5829 47.4332 39.5829 50.4918C39.5829 51.7662 40.2966 52.4034 41.7239 52.4034C43.525 52.4034 45.3177 51.4263 47.1019 49.4722C48.886 47.5182 51.095 44.0943 53.7287 39.2006C53.7287 39.2006 53.8392 39.0306 54.0601 38.6908Z" fill="#323232"/>
<path d="M81.022 36.0886C79.8977 36.0886 78.9474 35.8343 78.1711 35.3257C77.4216 34.7903 77.0468 33.9069 77.0468 32.6756V23.4001C77.0468 22.4632 76.913 21.8609 76.6453 21.5932C76.4044 21.3255 75.8422 21.1917 74.9588 21.1917C74.8785 21.1917 74.8384 21.0846 74.8384 20.8704C74.8384 20.6831 74.8785 20.5894 74.9588 20.5894C76.1367 20.5626 77.087 20.2815 77.8097 19.7462C78.5325 19.184 79.001 18.4211 79.2151 17.4574C79.2419 17.3771 79.3489 17.3369 79.5363 17.3369C79.7237 17.3369 79.8174 17.3771 79.8174 17.4574V31.3103C79.8174 33.4251 80.848 34.4825 82.9092 34.4825C84.0603 34.4825 85.1177 34.1077 86.0813 33.3582C86.1081 33.3314 86.1483 33.318 86.2018 33.318C86.2821 33.318 86.349 33.3716 86.4026 33.4786C86.4561 33.5857 86.4427 33.666 86.3624 33.7195C85.372 34.5494 84.4618 35.1517 83.632 35.5264C82.8021 35.9012 81.9322 36.0886 81.022 36.0886ZM85.1578 22.0751C83.3643 21.6735 81.2897 21.4727 78.934 21.4727V20.5492C80.6205 20.5492 82.7352 20.4154 85.2783 20.1477C85.3586 20.1477 85.4255 20.2414 85.479 20.4288C85.5326 20.6161 85.5593 20.8303 85.5593 21.0712C85.5593 21.3121 85.5192 21.5531 85.4389 21.794C85.3586 22.0081 85.2649 22.1018 85.1578 22.0751Z" fill="#323232"/>
<path d="M96.4365 36.1288C94.8572 36.1288 93.4652 35.754 92.2606 35.0045C91.056 34.2282 90.1191 33.1975 89.4498 31.9126C88.8074 30.601 88.4862 29.1822 88.4862 27.6564C88.4862 25.9164 88.9145 24.4441 89.7711 23.2395C90.6277 22.0081 91.7252 21.098 93.0636 20.5091C94.4021 19.8934 95.7673 19.5855 97.1593 19.5855C98.7387 19.5855 100.131 19.9737 101.335 20.75C102.54 21.5263 103.463 22.5569 104.106 23.8418C104.748 25.0999 105.07 26.4384 105.07 27.8571C105.07 29.4901 104.668 30.9356 103.865 32.1937C103.089 33.4519 102.045 34.4289 100.733 35.1249C99.4213 35.7941 97.9891 36.1288 96.4365 36.1288ZM97.601 35.3658C98.9394 35.3658 99.97 34.8438 100.693 33.7999C101.416 32.7559 101.777 31.1765 101.777 29.0617C101.777 27.3218 101.509 25.7959 100.974 24.4843C100.465 23.1726 99.7559 22.1687 98.8457 21.4727C97.9356 20.75 96.9184 20.3886 95.7941 20.3886C94.4824 20.3886 93.4652 20.8972 92.7424 21.9144C92.0464 22.9049 91.6984 24.3772 91.6984 26.3313C91.6984 28.0178 91.9527 29.557 92.4613 30.949C92.97 32.3142 93.6659 33.3983 94.5493 34.2014C95.4595 34.9777 96.4767 35.3658 97.601 35.3658Z" fill="#323232"/>
<path d="M123.371 36.0886C122.247 36.0886 121.297 35.8343 120.52 35.3257C119.771 34.7903 119.396 33.9069 119.396 32.6756V23.4001C119.396 22.4632 119.262 21.8609 118.995 21.5932C118.754 21.3255 118.192 21.1917 117.308 21.1917C117.228 21.1917 117.188 21.0846 117.188 20.8704C117.188 20.6831 117.228 20.5894 117.308 20.5894C118.486 20.5626 119.436 20.2815 120.159 19.7462C120.882 19.184 121.35 18.4211 121.564 17.4574C121.591 17.3771 121.698 17.3369 121.886 17.3369C122.073 17.3369 122.167 17.3771 122.167 17.4574V31.3103C122.167 33.4251 123.197 34.4825 125.259 34.4825C126.41 34.4825 127.467 34.1077 128.431 33.3582C128.457 33.3314 128.498 33.318 128.551 33.318C128.631 33.318 128.698 33.3716 128.752 33.4786C128.805 33.5857 128.792 33.666 128.712 33.7195C127.721 34.5494 126.811 35.1517 125.981 35.5264C125.151 35.9012 124.281 36.0886 123.371 36.0886ZM127.507 22.0751C125.714 21.6735 123.639 21.4727 121.283 21.4727V20.5492C122.97 20.5492 125.085 20.4154 127.628 20.1477C127.708 20.1477 127.775 20.2414 127.828 20.4288C127.882 20.6161 127.909 20.8303 127.909 21.0712C127.909 21.3121 127.869 21.5531 127.788 21.794C127.708 22.0081 127.614 22.1018 127.507 22.0751Z" fill="#323232"/>
<path d="M130.394 35.6068C130.34 35.6068 130.313 35.5264 130.313 35.3658C130.313 35.2052 130.34 35.1249 130.394 35.1249C131.384 35.1249 132.027 34.9509 132.321 34.6029C132.642 34.2282 132.803 33.4786 132.803 32.3543V11.7155C132.803 10.7518 132.709 10.0692 132.522 9.66764C132.361 9.23934 132.053 9.02519 131.598 9.02519C131.143 9.02519 130.554 9.19918 129.832 9.54718H129.791C129.684 9.54718 129.604 9.48026 129.551 9.34641C129.497 9.21257 129.51 9.11888 129.591 9.06534L134.971 6.49552H135.092C135.199 6.49552 135.292 6.53567 135.373 6.61598C135.48 6.69629 135.533 6.78998 135.533 6.89706V32.3543C135.533 33.4786 135.694 34.2282 136.015 34.6029C136.336 34.9509 136.992 35.1249 137.983 35.1249C138.063 35.1249 138.103 35.2052 138.103 35.3658C138.103 35.5264 138.063 35.6068 137.983 35.6068C137.314 35.6068 136.792 35.5934 136.417 35.5666L134.208 35.5264L131.92 35.5666C131.545 35.5934 131.036 35.6068 130.394 35.6068ZM141.195 35.6068C141.142 35.6068 141.115 35.5264 141.115 35.3658C141.115 35.2052 141.142 35.1249 141.195 35.1249C142.186 35.1249 142.828 34.9509 143.122 34.6029C143.444 34.2282 143.604 33.4786 143.604 32.3543V26.1707C143.604 24.6181 143.31 23.467 142.721 22.7175C142.159 21.968 141.275 21.5932 140.071 21.5932C139.134 21.5932 138.184 21.8743 137.22 22.4364C136.256 22.9986 135.453 23.7481 134.811 24.685L134.61 24.2032C135.734 22.6774 136.872 21.5397 138.023 20.7901C139.201 20.0406 140.432 19.6658 141.717 19.6658C143.189 19.6658 144.327 20.0941 145.13 20.9508C145.933 21.8074 146.335 23.0253 146.335 24.6047V32.3543C146.335 33.4786 146.495 34.2282 146.817 34.6029C147.138 34.9509 147.794 35.1249 148.784 35.1249C148.864 35.1249 148.905 35.2052 148.905 35.3658C148.905 35.5264 148.864 35.6068 148.784 35.6068C148.115 35.6068 147.593 35.5934 147.218 35.5666L145.01 35.5264L142.721 35.5666C142.346 35.5934 141.838 35.6068 141.195 35.6068Z" fill="#323232"/>
<path d="M158.58 36.0886C157 36.0886 155.635 35.7406 154.484 35.0446C153.333 34.3218 152.463 33.3715 151.874 32.1937C151.285 30.9891 150.991 29.7042 150.991 28.339C150.991 26.7596 151.365 25.3141 152.115 24.0024C152.891 22.6907 153.935 21.6601 155.247 20.9106C156.559 20.1343 158.017 19.7462 159.624 19.7462C161.203 19.7462 162.408 20.1477 163.237 20.9508C164.067 21.7271 164.482 22.8513 164.482 24.3236C164.482 25.0732 164.322 25.4479 164 25.4479H161.23C161.337 23.8686 161.123 22.664 160.587 21.8341C160.079 20.9775 159.302 20.5492 158.258 20.5492C156.947 20.5492 155.916 21.1114 155.167 22.2357C154.444 23.3332 154.082 24.8456 154.082 26.773C154.082 29.1287 154.618 31.0025 155.689 32.3945C156.786 33.7865 158.339 34.4825 160.346 34.4825C161.123 34.4825 161.792 34.3888 162.354 34.2014C162.916 33.9872 163.572 33.666 164.322 33.2377H164.362C164.442 33.2377 164.509 33.2912 164.562 33.3983C164.643 33.4786 164.656 33.5589 164.603 33.6392C163.639 34.4958 162.675 35.1249 161.712 35.5264C160.748 35.9012 159.704 36.0886 158.58 36.0886ZM153.119 24.8858L162.113 24.7252V25.4479L153.159 25.4881L153.119 24.8858Z" fill="#323232"/>
<path d="M183.013 36.0886C181.889 36.0886 180.939 35.8343 180.162 35.3257C179.413 34.7903 179.038 33.9069 179.038 32.6756V23.4001C179.038 22.4632 178.904 21.8609 178.637 21.5932C178.396 21.3255 177.833 21.1917 176.95 21.1917C176.87 21.1917 176.83 21.0846 176.83 20.8704C176.83 20.6831 176.87 20.5894 176.95 20.5894C178.128 20.5626 179.078 20.2815 179.801 19.7462C180.524 19.184 180.992 18.4211 181.206 17.4574C181.233 17.3771 181.34 17.3369 181.528 17.3369C181.715 17.3369 181.809 17.3771 181.809 17.4574V31.3103C181.809 33.4251 182.839 34.4825 184.9 34.4825C186.052 34.4825 187.109 34.1077 188.073 33.3582C188.099 33.3314 188.14 33.318 188.193 33.318C188.273 33.318 188.34 33.3716 188.394 33.4786C188.447 33.5857 188.434 33.666 188.354 33.7195C187.363 34.5494 186.453 35.1517 185.623 35.5264C184.793 35.9012 183.923 36.0886 183.013 36.0886ZM187.149 22.0751C185.356 21.6735 183.281 21.4727 180.925 21.4727V20.5492C182.612 20.5492 184.726 20.4154 187.27 20.1477C187.35 20.1477 187.417 20.2414 187.47 20.4288C187.524 20.6161 187.551 20.8303 187.551 21.0712C187.551 21.3121 187.51 21.5531 187.43 21.794C187.35 22.0081 187.256 22.1018 187.149 22.0751Z" fill="#323232"/>
<path d="M201.761 35.8477C201.653 35.9012 201.533 35.928 201.399 35.928C200.971 35.928 200.583 35.6201 200.235 35.0045C199.887 34.362 199.713 33.5054 199.713 32.4346V25.0866C199.713 23.4804 199.512 22.316 199.11 21.5932C198.736 20.8437 198.16 20.4689 197.384 20.4689C196.474 20.4689 195.804 20.7768 195.376 21.3924C194.948 22.0081 194.667 22.7175 194.533 23.5206C194.399 24.7519 193.824 25.3676 192.806 25.3676C192.298 25.3676 191.91 25.2472 191.642 25.0063C191.401 24.7653 191.28 24.4575 191.28 24.0827C191.28 23.3867 191.709 22.7041 192.565 22.0349C193.422 21.3389 194.453 20.7768 195.657 20.3485C196.889 19.9202 197.973 19.706 198.91 19.706C200.034 19.706 200.904 20.0674 201.52 20.7901C202.135 21.5129 202.443 22.5435 202.443 23.882V31.2702C202.443 33.0102 202.952 33.8802 203.969 33.8802C204.478 33.8802 205.067 33.7329 205.736 33.4385H205.776C205.883 33.4385 205.95 33.5054 205.977 33.6392C206.03 33.7463 206.003 33.8266 205.896 33.8802L201.761 35.8477ZM194.372 35.8878C193.328 35.8878 192.525 35.6335 191.963 35.1249C191.401 34.5895 191.12 33.9069 191.12 33.0771C191.12 32.1669 191.468 31.4442 192.164 30.9088C192.86 30.3734 193.984 29.8113 195.537 29.2224L200.114 27.5359L200.235 28.0579L196.581 29.5436C195.885 29.8113 195.336 30.1459 194.934 30.5474C194.533 30.9222 194.332 31.404 194.332 31.9929C194.332 32.6354 194.533 33.1708 194.934 33.5991C195.363 34.0006 195.898 34.2014 196.541 34.2014C197.049 34.2014 197.625 34.014 198.267 33.6392L200.636 32.1536L200.717 32.7157L197.785 34.6431C197.17 35.0981 196.594 35.4194 196.059 35.6068C195.523 35.7941 194.961 35.8878 194.372 35.8878Z" fill="#323232"/>
<path d="M216.293 36.1288C213.964 36.1288 211.916 35.3658 210.149 33.84L212.278 29.905C212.278 31.1631 212.559 32.2071 213.121 33.0369C213.683 33.84 214.352 34.4289 215.128 34.8037C215.932 35.1785 216.708 35.3658 217.457 35.3658C218.876 35.3658 219.974 34.7635 220.75 33.5589C221.553 32.3543 221.955 30.6545 221.955 28.4594C221.955 26.077 221.5 24.2701 220.589 23.0387C219.706 21.7806 218.528 21.1515 217.056 21.1515C216.119 21.1515 215.222 21.4058 214.366 21.9144C213.509 22.423 212.639 23.119 211.756 24.0024L211.434 23.7213C212.559 22.4632 213.656 21.4594 214.727 20.7098C215.824 19.9603 217.096 19.5855 218.542 19.5855C219.719 19.5855 220.804 19.8666 221.794 20.4288C222.784 20.9909 223.574 21.8341 224.163 22.9584C224.752 24.056 225.046 25.4078 225.046 27.0139C225.046 28.9681 224.631 30.6277 223.802 31.9929C222.972 33.3582 221.888 34.3888 220.549 35.0848C219.211 35.7808 217.792 36.1288 216.293 36.1288ZM207.419 35.8075C207.312 35.8075 207.245 35.754 207.218 35.6469C207.218 35.5666 207.258 35.4997 207.339 35.4461C208.115 34.9108 208.677 34.362 209.025 33.7999C209.373 33.2377 209.547 32.4614 209.547 31.471V11.7155C209.547 10.7786 209.453 10.0959 209.266 9.66764C209.079 9.23934 208.744 9.02519 208.262 9.02519C207.887 9.02519 207.312 9.19918 206.536 9.54718H206.496C206.388 9.54718 206.308 9.48026 206.255 9.34641C206.201 9.1858 206.228 9.09211 206.335 9.06534L211.595 6.53567L211.796 6.49552C211.903 6.49552 212.01 6.53567 212.117 6.61598C212.224 6.69629 212.278 6.78998 212.278 6.89706V33.6392L207.499 35.8075H207.419Z" fill="#323232"/>
<path d="M228.006 35.6068C227.953 35.6068 227.926 35.5264 227.926 35.3658C227.926 35.2052 227.953 35.1249 228.006 35.1249C228.997 35.1249 229.639 34.9509 229.934 34.6029C230.255 34.2282 230.416 33.4786 230.416 32.3543L230.456 11.7155C230.456 10.7518 230.362 10.0692 230.175 9.66764C229.987 9.23934 229.666 9.02519 229.211 9.02519C228.756 9.02519 228.18 9.19918 227.484 9.54718H227.444C227.337 9.54718 227.244 9.48026 227.163 9.34641C227.11 9.1858 227.136 9.09211 227.244 9.06534L232.624 6.53567L232.785 6.49552C232.865 6.49552 232.959 6.53567 233.066 6.61598C233.2 6.69629 233.267 6.78998 233.267 6.89706V32.3543C233.267 33.4786 233.414 34.2282 233.708 34.6029C234.029 34.9509 234.672 35.1249 235.636 35.1249C235.743 35.1249 235.796 35.2052 235.796 35.3658C235.796 35.5264 235.743 35.6068 235.636 35.6068C235.02 35.6068 234.525 35.5934 234.15 35.5666L231.821 35.5264L229.572 35.5666C229.198 35.5934 228.676 35.6068 228.006 35.6068Z" fill="#323232"/>
<path d="M245.945 36.0886C244.365 36.0886 243 35.7406 241.849 35.0446C240.698 34.3218 239.828 33.3715 239.239 32.1937C238.65 30.9891 238.356 29.7042 238.356 28.339C238.356 26.7596 238.73 25.3141 239.48 24.0024C240.256 22.6907 241.3 21.6601 242.612 20.9106C243.924 20.1343 245.383 19.7462 246.989 19.7462C248.568 19.7462 249.773 20.1477 250.602 20.9508C251.432 21.7271 251.847 22.8513 251.847 24.3236C251.847 25.0732 251.687 25.4479 251.365 25.4479H248.595C248.702 23.8686 248.488 22.664 247.952 21.8341C247.444 20.9775 246.667 20.5492 245.623 20.5492C244.312 20.5492 243.281 21.1114 242.532 22.2357C241.809 23.3332 241.447 24.8456 241.447 26.773C241.447 29.1287 241.983 31.0025 243.054 32.3945C244.151 33.7865 245.704 34.4825 247.711 34.4825C248.488 34.4825 249.157 34.3888 249.719 34.2014C250.281 33.9872 250.937 33.666 251.687 33.2377H251.727C251.807 33.2377 251.874 33.2912 251.928 33.3983C252.008 33.4786 252.021 33.5589 251.968 33.6392C251.004 34.4958 250.04 35.1249 249.077 35.5264C248.113 35.9012 247.069 36.0886 245.945 36.0886ZM240.484 24.8858L249.478 24.7252V25.4479L240.524 25.4881L240.484 24.8858Z" fill="#323232"/>
</svg>
