<svg width="314" height="58" viewBox="0 0 314 58" fill="none" xmlns="http://www.w3.org/2000/svg">
<path d="M4.07275 12.669L5.13521 12.7577L4.69252 34.5273C4.66301 36.0939 4.92862 37.2024 5.48936 37.8526C6.05011 38.5029 7.03878 38.8281 8.45539 38.8281C8.51442 38.8281 8.54393 38.9167 8.54393 39.0941C8.54393 39.2714 8.51442 39.3601 8.45539 39.3601C7.62904 39.3601 6.99451 39.3453 6.55182 39.3158L4.16129 39.2714L1.8593 39.3158C1.44612 39.3453 0.855869 39.3601 0.0885381 39.3601C0.0295127 39.3601 0 39.2714 0 39.0941C0 38.9167 0.0295127 38.8281 0.0885381 38.8281C1.32807 38.8281 2.21345 38.5029 2.74468 37.8526C3.30542 37.1728 3.60055 36.0644 3.63006 34.5273L4.07275 12.669ZM34.3085 38.8281C34.3971 38.8281 34.4413 38.9167 34.4413 39.0941C34.4413 39.2714 34.3971 39.3601 34.3085 39.3601C33.3936 39.3601 32.6706 39.3453 32.1393 39.3158L29.0848 39.2714L26.2516 39.3158C25.7794 39.3453 25.1153 39.3601 24.2594 39.3601C24.2004 39.3601 24.1709 39.2714 24.1709 39.0941C24.1709 38.9167 24.2004 38.8281 24.2594 38.8281C25.2629 38.8281 26.0007 38.7542 26.4729 38.6064C26.9746 38.429 27.2993 38.1334 27.4468 37.7196C27.6239 37.3058 27.6829 36.6555 27.6239 35.7688L26.7828 14.3538L28.2437 12.3143L16.7337 39.0498C16.6747 39.168 16.5566 39.2271 16.3796 39.2271C16.232 39.2271 16.0992 39.168 15.9811 39.0498L4.8696 15.3293C4.36788 14.2356 3.74811 13.4375 3.0103 12.935C2.30199 12.4325 1.43137 12.1813 0.398422 12.1813C0.339396 12.1813 0.309884 12.0926 0.309884 11.9153C0.309884 11.7379 0.339396 11.6493 0.398422 11.6493L2.03638 11.6936C2.3315 11.7231 2.74468 11.7379 3.27591 11.7379C3.80714 11.7379 4.24983 11.7231 4.60398 11.6936C4.98765 11.664 5.28278 11.6493 5.48936 11.6493C5.87303 11.6493 6.18291 11.797 6.41901 12.0926C6.68463 12.3586 7.05354 12.9794 7.52574 13.9548L17.6191 35.2367L16.2467 37.5423L27.0484 12.7577C27.373 12.0187 27.8157 11.6493 28.3765 11.6493C28.524 11.6493 28.7306 11.664 28.9962 11.6936C29.2914 11.7231 29.675 11.7379 30.1472 11.7379L32.2279 11.6936C32.5525 11.664 33.0395 11.6493 33.6888 11.6493C33.7478 11.6493 33.7773 11.7379 33.7773 11.9153C33.7773 12.0926 33.7478 12.1813 33.6888 12.1813C32.1836 12.1813 31.1064 12.403 30.4571 12.8464C29.8373 13.2602 29.557 14.0582 29.616 15.2406L30.5014 35.7688C30.5309 36.6851 30.6342 37.3502 30.8113 37.764C31.0179 38.1778 31.372 38.4586 31.8737 38.6064C32.3754 38.7542 33.187 38.8281 34.3085 38.8281Z" fill="black"/>
<path d="M49.2255 39.6261C49.1074 39.6853 48.9894 39.7148 48.8713 39.7148C48.4286 39.7148 48.045 39.3749 47.7203 38.6951C47.3957 38.0152 47.2334 37.1137 47.2334 35.9905V27.6107C47.2334 24.3002 46.3037 22.6449 44.4444 22.6449C43.441 22.6449 42.6736 22.9848 42.1424 23.6647C41.6407 24.315 41.3013 25.0687 41.1242 25.9259C41.0062 26.4875 40.8291 26.9309 40.593 27.256C40.3864 27.5811 40.0027 27.7437 39.442 27.7437C38.9698 27.7437 38.6009 27.6107 38.3353 27.3447C38.0992 27.0787 37.9811 26.7683 37.9811 26.4136C37.9811 25.7042 38.4386 24.9948 39.3535 24.2854C40.2684 23.576 41.3603 22.9848 42.6294 22.5119C43.8984 22.039 45.0347 21.8025 46.0381 21.8025C47.2481 21.8025 48.163 22.1868 48.7828 22.9553C49.4025 23.7238 49.7124 24.8322 49.7124 26.2806V34.5717C49.7124 35.6062 49.8452 36.36 50.1109 36.8329C50.3765 37.3058 50.8044 37.5423 51.3946 37.5423C51.9849 37.5423 52.7227 37.3502 53.6081 36.9659H53.6966C53.8147 36.9659 53.8885 37.0398 53.918 37.1876C53.9475 37.3058 53.9032 37.3945 53.7852 37.4536L49.2255 39.6261ZM41.257 39.6705C40.1651 39.6705 39.3092 39.3897 38.6894 38.8281C38.0992 38.2369 37.8041 37.4979 37.8041 36.6112C37.8041 35.7244 38.1582 34.9559 38.8665 34.3057C39.5748 33.6554 40.7406 33.0346 42.3638 32.4435L47.676 30.4483L47.8089 31.0247L43.1163 32.8425C42.29 33.1677 41.685 33.5519 41.3013 33.9953C40.9472 34.4091 40.7701 34.9116 40.7701 35.5028C40.7701 36.2122 40.9914 36.8181 41.4341 37.3206C41.9063 37.7935 42.5113 38.03 43.2491 38.03C43.8394 38.03 44.5477 37.7935 45.3741 37.3206L48.163 35.6358L48.2515 36.2122L44.9756 38.3404C44.2378 38.8133 43.5885 39.1532 43.0278 39.3601C42.4671 39.567 41.8768 39.6705 41.257 39.6705Z" fill="black"/>
<path d="M65.337 39.3601C65.2485 39.3601 65.2042 39.2714 65.2042 39.0941C65.2042 38.9167 65.2485 38.8281 65.337 38.8281C65.8682 38.8281 66.2371 38.7985 66.4437 38.7394C66.6798 38.6507 66.7979 38.5029 66.7979 38.296C66.7979 38.03 66.6208 37.631 66.2666 37.0989L58.8737 25.9259C58.1654 24.8322 57.4276 24.0342 56.6603 23.5317C55.8929 23.0292 55.1994 22.7779 54.5796 22.7779C54.5206 22.7779 54.4911 22.6893 54.4911 22.5119C54.4911 22.3346 54.5206 22.2459 54.5796 22.2459C55.1994 22.2459 55.6568 22.2607 55.9519 22.2902L57.3243 22.3346L60.1575 22.2902C60.5707 22.2607 61.1462 22.2459 61.884 22.2459C61.943 22.2459 61.9725 22.3346 61.9725 22.5119C61.9725 22.6893 61.943 22.7779 61.884 22.7779C61.3823 22.7779 61.0134 22.8223 60.7773 22.9109C60.5412 22.9701 60.4231 23.1031 60.4231 23.31C60.4231 23.5169 60.615 23.9159 60.9986 24.5071L68.3915 35.6801C69.1294 36.8033 69.8819 37.6162 70.6493 38.1187C71.4461 38.5916 72.1544 38.8281 72.7742 38.8281C72.8332 38.8281 72.8627 38.9167 72.8627 39.0941C72.8627 39.2714 72.8332 39.3601 72.7742 39.3601L71.3576 39.3158C71.0329 39.2862 70.5607 39.2714 69.941 39.2714L67.1077 39.3158C66.6651 39.3453 66.0748 39.3601 65.337 39.3601ZM54.4468 39.3601C54.3878 39.3601 54.3583 39.2714 54.3583 39.0941C54.3583 38.9167 54.3878 38.8281 54.4468 38.8281C55.2141 38.8281 56.0405 38.5473 56.9259 37.9857C57.8408 37.424 58.6819 36.6112 59.4492 35.5471L62.9907 30.6256L63.522 31.069L60.246 35.8131C59.6558 36.6999 59.3607 37.3502 59.3607 37.764C59.3607 38.1187 59.5525 38.3847 59.9362 38.562C60.3493 38.7394 60.9986 38.8281 61.884 38.8281C61.9725 38.8281 62.0168 38.9167 62.0168 39.0941C62.0168 39.2714 61.9725 39.3601 61.884 39.3601C61.0872 39.3601 60.4969 39.3453 60.1132 39.3158L57.4571 39.2714L55.8634 39.3158C55.5683 39.3453 55.0961 39.3601 54.4468 39.3601ZM63.2121 30.3596L66.3109 25.7929C66.9307 24.8766 67.2406 24.2115 67.2406 23.7977C67.2406 23.443 67.034 23.1917 66.6208 23.044C66.2371 22.8666 65.5878 22.7779 64.673 22.7779C64.6139 22.7779 64.5844 22.6893 64.5844 22.5119C64.5844 22.3346 64.6139 22.2459 64.673 22.2459C65.4698 22.2459 66.0748 22.2607 66.488 22.2902L69.1441 22.3346L70.7378 22.2902C71.0329 22.2607 71.5051 22.2459 72.1544 22.2459C72.2134 22.2459 72.243 22.3346 72.243 22.5119C72.243 22.6893 72.2134 22.7779 72.1544 22.7779C71.3576 22.7779 70.5165 23.0587 69.6311 23.6203C68.7752 24.1524 67.9489 24.9652 67.152 26.0589L63.6548 30.803L63.2121 30.3596Z" fill="black"/>
<path d="M75.6717 39.3601C75.6127 39.3601 75.5832 39.2714 75.5832 39.0941C75.5832 38.9167 75.6127 38.8281 75.6717 38.8281C76.4686 38.8281 77.0588 38.7542 77.4425 38.6064C77.8557 38.429 78.136 38.1334 78.2836 37.7196C78.4312 37.3058 78.505 36.6555 78.505 35.7688V27.4777C78.505 26.4136 78.3869 25.6451 78.1508 25.1721C77.9442 24.6992 77.5753 24.4628 77.0441 24.4628C76.5128 24.4628 75.8488 24.6697 75.052 25.0835H75.0077C74.8896 25.0835 74.8011 25.0096 74.7421 24.8618C74.6831 24.714 74.6978 24.6105 74.7864 24.5514L80.5413 21.8912L80.7184 21.8468C80.7774 21.8468 80.8512 21.8912 80.9398 21.9799C81.0283 22.039 81.0726 22.1129 81.0726 22.2015C81.0726 22.4085 81.0578 22.9996 81.0283 23.975C80.9988 24.9505 80.984 26.1032 80.984 27.4334V35.7688C80.984 36.6555 81.0578 37.3058 81.2054 37.7196C81.3529 38.1334 81.6185 38.429 82.0022 38.6064C82.3859 38.7542 82.9761 38.8281 83.773 38.8281C83.8615 38.8281 83.9058 38.9167 83.9058 39.0941C83.9058 39.2714 83.8615 39.3601 83.773 39.3601C83.0942 39.3601 82.5482 39.3453 82.135 39.3158L79.7445 39.2714L77.354 39.3158C76.9408 39.3453 76.38 39.3601 75.6717 39.3601ZM79.3903 16.6594C78.8001 16.6594 78.3279 16.4968 77.9737 16.1717C77.6196 15.8465 77.4425 15.3884 77.4425 14.7972C77.4425 14.206 77.6196 13.7479 77.9737 13.4227C78.3279 13.0976 78.8001 12.935 79.3903 12.935C79.9806 12.935 80.438 13.0976 80.7627 13.4227C81.0873 13.7479 81.2496 14.206 81.2496 14.7972C81.2496 15.3884 81.0873 15.8465 80.7627 16.1717C80.438 16.4968 79.9806 16.6594 79.3903 16.6594Z" fill="black"/>
<path d="M110.221 39.3601C110.132 39.3601 110.088 39.2714 110.088 39.0941C110.088 38.9167 110.132 38.8281 110.221 38.8281C111.018 38.8281 111.608 38.7542 111.992 38.6064C112.375 38.429 112.641 38.1334 112.789 37.7196C112.936 37.2763 113.01 36.626 113.01 35.7688V28.7191C113.01 26.9752 112.7 25.6746 112.08 24.8175C111.461 23.9603 110.501 23.5317 109.203 23.5317C108.17 23.5317 107.107 23.8864 106.015 24.5958C104.953 25.2756 104.038 26.2067 103.271 27.389L103.094 26.857C104.333 25.113 105.558 23.842 106.768 23.044C108.008 22.2163 109.306 21.8025 110.664 21.8025C112.228 21.8025 113.423 22.2459 114.249 23.1326C115.076 24.0194 115.489 25.3643 115.489 27.1673V35.7688C115.489 36.6555 115.563 37.3058 115.71 37.7196C115.858 38.1334 116.124 38.429 116.507 38.6064C116.891 38.7542 117.481 38.8281 118.278 38.8281C118.366 38.8281 118.411 38.9167 118.411 39.0941C118.411 39.2714 118.366 39.3601 118.278 39.3601C117.599 39.3601 117.053 39.3453 116.64 39.3158L114.249 39.2714L111.859 39.3158C111.446 39.3453 110.9 39.3601 110.221 39.3601ZM98.7996 39.3601C98.711 39.3601 98.6667 39.2714 98.6667 39.0941C98.6667 38.9167 98.711 38.8281 98.7996 38.8281C99.5964 38.8281 100.187 38.7542 100.57 38.6064C100.954 38.429 101.205 38.1334 101.323 37.7196C101.47 37.3058 101.544 36.6555 101.544 35.7688V28.7191C101.544 26.9752 101.234 25.6746 100.615 24.8175C99.9948 23.9603 99.0504 23.5317 97.7814 23.5317C96.7189 23.5317 95.6565 23.8864 94.594 24.5958C93.5315 25.2756 92.6166 26.2067 91.8493 27.389L91.6722 26.857C92.9118 25.113 94.1366 23.842 95.3466 23.044C96.5861 22.2163 97.8699 21.8025 99.198 21.8025C100.762 21.8025 101.957 22.2459 102.784 23.1326C103.64 24.0194 104.068 25.3347 104.068 27.0787V35.7688C104.068 36.6555 104.141 37.3058 104.289 37.7196C104.436 38.1334 104.702 38.429 105.086 38.6064C105.469 38.7542 106.06 38.8281 106.857 38.8281C106.945 38.8281 106.989 38.9167 106.989 39.0941C106.989 39.2714 106.945 39.3601 106.857 39.3601C106.178 39.3601 105.632 39.3453 105.219 39.3158L102.828 39.2714L100.393 39.3158C100.01 39.3453 99.4783 39.3601 98.7996 39.3601ZM87.4224 39.3601C87.3339 39.3601 87.2896 39.2714 87.2896 39.0941C87.2896 38.9167 87.3339 38.8281 87.4224 38.8281C88.2192 38.8281 88.8095 38.7542 89.1932 38.6064C89.5768 38.429 89.8277 38.1334 89.9457 37.7196C90.0933 37.3058 90.1671 36.6555 90.1671 35.7688V26.99C90.1671 25.985 90.049 25.2608 89.8129 24.8175C89.5768 24.3741 89.1784 24.1524 88.6177 24.1524C88.1455 24.1524 87.3486 24.3741 86.2271 24.8175H86.1386C86.0206 24.8175 85.932 24.7583 85.873 24.6401C85.8435 24.4923 85.8877 24.3889 86.0058 24.3297L91.141 21.8912C91.2 21.8616 91.2886 21.8468 91.4066 21.8468C91.6722 21.8468 91.9526 22.1868 92.2477 22.8666C92.5429 23.5464 92.6904 24.4184 92.6904 25.4825V35.7688C92.6904 36.6555 92.7495 37.3058 92.8675 37.7196C93.0151 38.1334 93.2807 38.429 93.6643 38.6064C94.048 38.7542 94.6383 38.8281 95.4351 38.8281C95.5237 38.8281 95.5679 38.9167 95.5679 39.0941C95.5679 39.2714 95.5237 39.3601 95.4351 39.3601C94.7563 39.3601 94.2251 39.3453 93.8414 39.3158L91.4509 39.2714L89.0161 39.3158C88.6324 39.3453 88.1012 39.3601 87.4224 39.3601Z" fill="black"/>
<path d="M133.095 39.6261C132.977 39.6853 132.858 39.7148 132.74 39.7148C132.298 39.7148 131.914 39.3749 131.589 38.6951C131.265 38.0152 131.102 37.1137 131.102 35.9905V27.6107C131.102 24.3002 130.173 22.6449 128.314 22.6449C127.31 22.6449 126.543 22.9848 126.012 23.6647C125.51 24.315 125.17 25.0687 124.993 25.9259C124.875 26.4875 124.698 26.9309 124.462 27.256C124.256 27.5811 123.872 27.7437 123.311 27.7437C122.839 27.7437 122.47 27.6107 122.204 27.3447C121.968 27.0787 121.85 26.7683 121.85 26.4136C121.85 25.7042 122.308 24.9948 123.223 24.2854C124.137 23.576 125.229 22.9848 126.498 22.5119C127.768 22.039 128.904 21.8025 129.907 21.8025C131.117 21.8025 132.032 22.1868 132.652 22.9553C133.272 23.7238 133.582 24.8322 133.582 26.2806V34.5717C133.582 35.6062 133.714 36.36 133.98 36.8329C134.246 37.3058 134.674 37.5423 135.264 37.5423C135.854 37.5423 136.592 37.3502 137.477 36.9659H137.566C137.684 36.9659 137.758 37.0398 137.787 37.1876C137.817 37.3058 137.772 37.3945 137.654 37.4536L133.095 39.6261ZM125.126 39.6705C124.034 39.6705 123.178 39.3897 122.559 38.8281C121.968 38.2369 121.673 37.4979 121.673 36.6112C121.673 35.7244 122.027 34.9559 122.736 34.3057C123.444 33.6554 124.61 33.0346 126.233 32.4435L131.545 30.4483L131.678 31.0247L126.985 32.8425C126.159 33.1677 125.554 33.5519 125.17 33.9953C124.816 34.4091 124.639 34.9116 124.639 35.5028C124.639 36.2122 124.861 36.8181 125.303 37.3206C125.775 37.7935 126.38 38.03 127.118 38.03C127.709 38.03 128.417 37.7935 129.243 37.3206L132.032 35.6358L132.121 36.2122L128.845 38.3404C128.107 38.8133 127.458 39.1532 126.897 39.3601C126.336 39.567 125.746 39.6705 125.126 39.6705Z" fill="black"/>
<path d="M139.511 39.3601C139.423 39.3601 139.378 39.2714 139.378 39.0941C139.378 38.9167 139.423 38.8281 139.511 38.8281C140.308 38.8281 140.898 38.7542 141.282 38.6064C141.666 38.429 141.931 38.1334 142.079 37.7196C142.226 37.2763 142.3 36.626 142.3 35.7688V12.8464C142.3 11.7823 142.197 11.0137 141.99 10.5408C141.784 10.0679 141.415 9.83142 140.884 9.83142C140.441 9.83142 139.762 10.0383 138.847 10.4521H138.759C138.67 10.4521 138.596 10.3782 138.537 10.2305C138.508 10.0827 138.537 9.99399 138.626 9.96443L144.292 7.25985C144.351 7.23029 144.425 7.21551 144.514 7.21551C144.602 7.21551 144.691 7.25985 144.779 7.34852C144.868 7.40764 144.912 7.48154 144.912 7.57021V35.7688C144.912 36.626 144.971 37.2615 145.089 37.6753C145.237 38.0891 145.502 38.3847 145.886 38.562C146.27 38.7394 146.86 38.8281 147.657 38.8281C147.745 38.8281 147.789 38.9167 147.789 39.0941C147.789 39.2714 147.745 39.3601 147.657 39.3601C147.007 39.3601 146.476 39.3453 146.063 39.3158L143.584 39.2714L141.193 39.3158C140.78 39.3453 140.219 39.3601 139.511 39.3601Z" fill="black"/>
<path d="M175.82 15.817C175.82 14.5164 175.466 13.4966 174.758 12.7577C174.079 12.0187 173.149 11.6493 171.969 11.6493C169.637 11.6493 168.471 13.068 168.471 15.9056C168.471 18.8023 169.622 21.8321 171.924 24.9948C174.256 28.128 177.222 31.0542 180.823 33.7736C182.652 35.1628 184.408 36.3008 186.091 37.1876C187.773 38.0448 189.204 38.5916 190.385 38.8281C190.503 38.8576 190.547 38.9611 190.517 39.1384C190.517 39.2862 190.473 39.3601 190.385 39.3601H185.604C184.039 39.3601 181.575 37.9413 178.211 35.1037C175.909 33.3007 173.754 31.2759 171.747 29.0295C169.74 26.7831 168.221 24.6253 167.188 22.5562C166.332 20.6941 165.904 19.0979 165.904 17.7678C165.904 16.4968 166.214 15.3293 166.833 14.2652C167.453 13.1715 168.324 12.3143 169.445 11.6936C170.567 11.0433 171.836 10.7182 173.253 10.7182C174.669 10.7182 175.879 11.0581 176.883 11.7379C177.916 12.4178 178.432 13.541 178.432 15.1076C178.432 16.2603 178.137 17.3097 177.547 18.2555C176.956 19.1718 176.248 19.9699 175.422 20.6497C174.595 21.3 173.444 22.1424 171.969 23.177C170.493 24.1524 169.298 25.0096 168.383 25.7485C167.498 26.4875 166.745 27.3595 166.125 28.3644C165.505 29.3694 165.196 30.4926 165.196 31.7341C165.196 32.9755 165.505 34.1283 166.125 35.1924C166.774 36.2269 167.66 37.0546 168.781 37.6753C169.903 38.2665 171.172 38.562 172.588 38.562C174.418 38.562 176.056 38.0596 177.502 37.0546C178.948 36.02 180.07 34.6604 180.867 32.9755C181.693 31.2907 182.106 29.5024 182.106 27.6107C182.106 26.5466 181.885 25.7485 181.442 25.2165C181.029 24.6844 180.203 24.4184 178.963 24.4184C178.875 24.4184 178.816 24.3297 178.786 24.1524C178.786 23.975 178.845 23.8864 178.963 23.8864L188.215 23.842C188.333 23.842 188.393 23.9307 188.393 24.1081C188.393 24.2854 188.333 24.3741 188.215 24.3741C187.212 24.3741 186.459 24.4775 185.958 24.6844C185.456 24.8618 185.102 25.1278 184.895 25.4825C184.689 25.8077 184.482 26.3101 184.275 26.99C181.855 35.5914 177.296 39.8922 170.596 39.8922C168.767 39.8922 167.232 39.5818 165.992 38.9611C164.782 38.3404 163.867 37.5275 163.248 36.5225C162.657 35.5175 162.362 34.4387 162.362 33.2859C162.362 32.0149 162.672 30.8621 163.292 29.8276C163.912 28.793 164.679 27.8767 165.594 27.0787C166.509 26.2806 167.734 25.3347 169.268 24.2411C170.714 23.2065 171.865 22.3198 172.721 21.5808C173.607 20.8123 174.344 19.9551 174.935 19.0093C175.525 18.0338 175.82 16.9697 175.82 15.817Z" fill="black"/>
<path d="M262.376 4.13295C262.376 4.22541 262.127 4.40108 261.628 4.65997C259.468 5.80647 257.566 7.4615 255.923 9.62506C254.28 11.7886 252.406 15.1079 250.301 19.583C247.236 26.0921 244.494 30.7706 242.076 33.6184C239.675 36.4661 236.703 38.5095 233.158 39.7484C234.801 39.9888 236.066 40.109 236.952 40.109C239.795 40.109 242.066 39.508 243.765 38.3061C245.482 37.0856 247.901 34.3673 251.021 30.1511C251.224 29.8922 251.381 29.7628 251.492 29.7628C251.566 29.7813 251.603 29.8368 251.603 29.9292C251.603 30.1141 250.735 31.3069 248.999 33.5074C246.876 36.2072 244.974 38.0472 243.294 39.0273C241.632 40.0073 239.583 40.4974 237.146 40.4974C235.632 40.4974 233.998 40.3309 232.244 39.9981C231.007 40.4049 229.742 40.6083 228.45 40.6083C227.471 40.6083 226.982 40.4234 226.982 40.0536C226.982 39.5913 227.665 39.3601 229.031 39.3601C229.788 39.3601 230.785 39.4526 232.022 39.6375H232.382C234.339 38.9348 235.992 37.8253 237.34 36.3089C238.706 34.7741 240.34 32.1945 242.242 28.5701C246.101 21.2288 249.156 16.0325 251.409 12.9813C253.588 10.0596 256.2 7.56321 259.247 5.49211C260.779 4.47505 261.767 3.96652 262.21 3.96652C262.321 3.96652 262.376 4.022 262.376 4.13295ZM275.698 11.6499C275.698 12.3711 275.614 13.0738 275.448 13.758C275.301 14.4237 275.144 14.7566 274.977 14.7566C274.848 14.7566 274.784 14.7011 274.784 14.5901C274.802 14.5162 274.821 14.4422 274.839 14.3682C275.116 13.721 275.254 12.8519 275.254 11.7609C275.254 9.30145 274.276 7.22111 272.319 5.51985C270.362 3.8001 267.971 2.94022 265.146 2.94022C260.585 2.94022 255.914 5.17775 251.132 9.6528C249.249 11.4095 247.624 13.12 246.258 14.7843C244.947 16.3561 242.38 19.6847 238.558 24.77C232.908 32.2592 228.274 36.9377 224.655 38.8054C223.031 39.6375 221.987 40.0536 221.526 40.0536C221.415 40.0536 221.36 39.9888 221.36 39.8594C221.378 39.8409 221.572 39.693 221.941 39.4156C223.751 38.0657 225.191 36.2535 226.262 33.979C227.259 31.8894 229.05 26.9428 231.635 19.1392C233.832 12.4821 236.343 7.71114 239.168 4.8264C239.278 4.71545 239.334 4.62299 239.334 4.54902C239.094 4.47505 238.549 4.87263 237.7 5.74175C234.949 8.47856 231.718 13.3974 228.006 20.4983C225.717 24.8624 223.704 28.1725 221.969 30.4285C220.252 32.666 218.202 34.6354 215.821 36.3367C211.906 39.1475 207.974 40.5528 204.022 40.5528C201.456 40.5528 199.36 40.0166 197.736 38.944C196.129 37.853 195.326 36.4569 195.326 34.7556C195.326 33.794 195.603 32.9896 196.157 32.3424C196.711 31.6767 197.403 31.3439 198.234 31.3439C199.434 31.3439 200.034 31.9356 200.034 33.1191C200.034 33.7293 199.84 34.2563 199.453 34.7001C199.065 35.1255 198.594 35.3381 198.04 35.3381C197.136 35.3381 196.683 34.8388 196.683 33.8403C196.683 33.4704 196.609 33.2855 196.462 33.2855C196.166 33.2855 196.019 33.794 196.019 34.8111C196.019 36.3274 196.766 37.5756 198.262 38.5557C199.776 39.5173 201.714 39.9981 204.078 39.9981C208.897 39.9981 213.623 37.4924 218.258 32.4811C220.123 30.4655 221.701 28.5053 222.994 26.6007C224.286 24.6775 226.862 20.5076 230.721 14.0909C232.345 11.3725 234.173 8.90387 236.204 6.68484C238.254 4.46581 239.712 3.35629 240.58 3.35629C240.709 3.35629 240.774 3.41176 240.774 3.52272C240.755 3.59668 240.719 3.67065 240.663 3.74462C238.946 5.6308 237.395 9.1905 236.01 14.4237C233.942 22.0979 231.995 27.6824 230.167 31.1774C228.357 34.5799 226.031 37.1596 223.187 38.9163C223.114 38.9348 223.077 38.9718 223.077 39.0273C223.095 39.0457 223.132 39.0642 223.187 39.0827C223.612 39.0827 224.646 38.491 226.289 37.3075C228.283 35.9021 230.121 34.2194 231.801 32.2592C233.481 30.2991 236.527 26.2863 240.94 20.2209C244.06 15.9308 246.535 12.7964 248.362 10.8178C250.209 8.82066 252.249 7.06392 254.483 5.54758C257.973 3.19911 261.49 2.02487 265.035 2.02487C268.137 2.02487 270.685 2.93097 272.679 4.74319C274.691 6.5554 275.698 8.85764 275.698 11.6499ZM231.801 10.0966C231.801 10.5034 231.274 11.2986 230.222 12.4821C228.634 14.2758 227.102 15.1726 225.625 15.1726C224.609 15.1726 223.751 14.8028 223.049 14.0631C222.347 13.305 221.997 12.3804 221.997 11.2893C221.997 10.2353 222.375 8.9686 223.132 7.48924C224.074 5.64004 224.545 4.33636 224.545 3.57819C224.545 2.6351 224.101 1.87693 223.215 1.30368C222.329 0.730432 221.166 0.443807 219.726 0.443807C215.608 0.443807 211.74 2.10808 208.121 5.43663C204.502 8.76518 202.693 12.3064 202.693 16.0603C202.693 18.0019 203.284 19.5922 204.466 20.8312C205.666 22.0516 207.198 22.6619 209.063 22.6619C210.725 22.6619 212.405 22.1903 214.103 21.2472C215.821 20.2857 217.205 19.056 218.258 17.5581C218.332 17.4656 218.387 17.4194 218.424 17.4194C218.572 17.4194 218.645 17.5026 218.645 17.6691C218.645 18.0389 218.055 18.7508 216.873 19.8049C214.436 22.0054 211.796 23.1057 208.952 23.1057C206.958 23.1057 205.333 22.4585 204.078 21.164C202.822 19.8696 202.195 18.1868 202.195 16.1157C202.195 12.103 204.041 8.41384 207.734 5.0483C211.445 1.68277 215.497 0 219.892 0C221.701 0 223.114 0.453053 224.129 1.35916C225.163 2.26526 225.68 3.51347 225.68 5.10378C225.68 6.28726 225.089 8.09023 223.908 10.5127C223.501 11.3633 223.298 12.0383 223.298 12.5375C223.298 13.9429 224.055 14.6456 225.569 14.6456C226.474 14.6456 227.48 14.2111 228.588 13.3419C229.714 12.4728 230.619 11.4095 231.302 10.1521C231.394 9.96716 231.487 9.8747 231.579 9.8747C231.727 9.8747 231.801 9.94867 231.801 10.0966Z" fill="black"/>
<path d="M265.007 30.6781C265.007 30.7336 264.841 30.974 264.509 31.3993L263.318 32.8972C259.496 37.6311 256.219 39.9981 253.486 39.9981C252.194 39.9981 251.104 39.5358 250.218 38.6112C249.35 37.6681 248.916 36.4939 248.916 35.0885C248.916 31.7599 251.233 28.8289 255.868 26.2956C258.305 24.9641 260.29 24.2984 261.822 24.2984C262.487 24.2984 263.05 24.5018 263.512 24.9087C263.992 25.297 264.232 25.7778 264.232 26.351C264.232 27.6824 263.364 28.8197 261.628 29.7628C259.893 30.6874 256.994 31.5565 252.932 32.3702C251.677 34.2748 251.049 35.8651 251.049 37.1411C251.049 38.7314 251.907 39.5265 253.624 39.5265C256.542 39.5265 260.114 36.6695 264.343 30.9555C264.564 30.6597 264.749 30.5117 264.896 30.5117C264.97 30.5302 265.007 30.5857 265.007 30.6781ZM262.681 25.5466C262.681 24.9549 262.358 24.659 261.711 24.659C260.733 24.659 259.44 25.3432 257.834 26.7116C256.246 28.0615 254.686 29.8183 253.154 31.9818C255.812 31.2976 258.065 30.336 259.911 29.0971C261.758 27.8396 262.681 26.6561 262.681 25.5466Z" fill="black"/>
<path d="M280.793 30.6781C280.793 30.8261 280.24 31.501 279.132 32.703C277.729 34.2563 276.408 35.033 275.171 35.033C273.768 35.033 273.066 34.2194 273.066 32.5921C273.066 32.0743 273.177 31.4178 273.399 30.6227C272.236 31.6397 271.285 32.6475 270.546 33.6461C269.826 34.6447 268.571 36.6788 266.78 39.7484C265.801 39.6745 265.229 39.6375 265.063 39.6375C264.989 39.6375 264.426 39.6745 263.373 39.7484L267.915 32.3702C270.186 28.6718 271.322 26.3788 271.322 25.4912C271.322 24.9734 271.109 24.7145 270.685 24.7145C269.651 24.7145 267.777 26.7024 265.063 30.6781C264.896 30.937 264.749 31.0665 264.619 31.0665C264.546 31.048 264.509 30.9925 264.509 30.9C264.527 30.8076 264.564 30.7336 264.619 30.6781L265.118 29.9847C267.961 26.1938 269.891 24.2984 270.906 24.2984C272.383 24.2984 273.122 25.2508 273.122 27.1554C273.122 28.5793 272.365 30.4655 270.851 32.814C271.811 31.7044 272.725 30.7983 273.593 30.0956C274.294 28.4499 275.162 27.0722 276.196 25.9627C277.248 24.8532 278.19 24.2984 279.021 24.2984C279.593 24.2984 279.88 24.5481 279.88 25.0473C279.88 25.935 278.596 27.2017 276.03 28.8474C275.624 29.1063 275.014 29.4854 274.202 29.9847L273.87 30.2621C273.611 31.1127 273.482 31.8154 273.482 32.3702C273.482 33.9235 274.064 34.7001 275.227 34.7001C276.667 34.7001 278.236 33.5074 279.935 31.122C280.304 30.7151 280.535 30.5117 280.627 30.5117C280.738 30.5117 280.793 30.5672 280.793 30.6781Z" fill="black"/>
<path d="M296.58 30.6781C296.58 30.8261 296.026 31.501 294.918 32.703C293.515 34.2563 292.195 35.033 290.958 35.033C289.554 35.033 288.853 34.2194 288.853 32.5921C288.853 32.0743 288.964 31.4178 289.185 30.6227C288.022 31.6397 287.071 32.6475 286.332 33.6461C285.612 34.6447 284.357 36.6788 282.566 39.7484C281.587 39.6745 281.015 39.6375 280.849 39.6375C280.775 39.6375 280.212 39.6745 279.159 39.7484L283.701 32.3702C285.972 28.6718 287.108 26.3788 287.108 25.4912C287.108 24.9734 286.896 24.7145 286.471 24.7145C285.437 24.7145 283.563 26.7024 280.849 30.6781C280.683 30.937 280.535 31.0665 280.406 31.0665C280.332 31.048 280.295 30.9925 280.295 30.9C280.313 30.8076 280.35 30.7336 280.406 30.6781L280.904 29.9847C283.748 26.1938 285.677 24.2984 286.693 24.2984C288.17 24.2984 288.908 25.2508 288.908 27.1554C288.908 28.5793 288.151 30.4655 286.637 32.814C287.597 31.7044 288.511 30.7983 289.379 30.0956C290.081 28.4499 290.948 27.0722 291.982 25.9627C293.035 24.8532 293.976 24.2984 294.807 24.2984C295.38 24.2984 295.666 24.5481 295.666 25.0473C295.666 25.935 294.383 27.2017 291.816 28.8474C291.41 29.1063 290.801 29.4854 289.988 29.9847L289.656 30.2621C289.397 31.1127 289.268 31.8154 289.268 32.3702C289.268 33.9235 289.85 34.7001 291.013 34.7001C292.453 34.7001 294.023 33.5074 295.721 31.122C296.09 30.7151 296.321 30.5117 296.414 30.5117C296.524 30.5117 296.58 30.5672 296.58 30.6781Z" fill="black"/>
<path d="M314 30.6781C314 30.9555 312.984 32.2222 310.954 34.4782C308.701 36.9562 305.765 39.1937 302.146 41.1908L300.789 43.6318C298.112 48.4397 295.315 52.0179 292.398 54.3663C289.388 56.7888 286.776 58 284.56 58C283.803 58 283.175 57.7596 282.677 57.2788C282.16 56.798 281.901 56.2063 281.901 55.5036C281.901 51.7867 286.176 47.9404 294.724 43.9646C295.426 43.6133 296.478 43.1232 297.881 42.4945L298.297 42.2449L303.171 33.5629C301.251 36.2072 299.857 37.9455 298.989 38.7776C298.121 39.5913 297.244 39.9981 296.358 39.9981C295.601 39.9981 294.936 39.6745 294.364 39.0273C293.81 38.38 293.533 37.6219 293.533 36.7528C293.533 35.6987 294.189 34.0529 295.5 31.8154L299.765 24.6035C300.189 24.6775 300.679 24.7145 301.233 24.7145C301.713 24.7145 302.377 24.6498 303.227 24.5203L297.771 33.3965C296.22 35.9114 295.444 37.5571 295.444 38.3338C295.444 39.1659 295.823 39.582 296.58 39.582C298.574 39.582 301.639 36.0408 305.775 28.9584L308.322 24.6035C308.747 24.6775 309.264 24.7145 309.873 24.7145C310.372 24.7145 310.99 24.6498 311.729 24.5203C309.44 28.1632 306.338 33.5074 302.423 40.5528C304.676 39.3879 306.578 38.1304 308.129 36.7805C309.68 35.4121 311.415 33.4889 313.335 31.011C313.594 30.6781 313.76 30.5117 313.834 30.5117C313.945 30.5117 314 30.5672 314 30.6781ZM298.02 42.7164C297.724 42.8828 296.681 43.4099 294.89 44.2975C286.489 48.4766 282.289 52.2305 282.289 55.5591C282.289 56.946 283.064 57.6394 284.615 57.6394C286.573 57.6394 288.52 56.5761 290.459 54.4495C292.398 52.323 294.798 48.5968 297.66 43.2712C297.66 43.2712 297.78 43.0862 298.02 42.7164Z" fill="black"/>
</svg>
