<svg width="208" height="87" viewBox="0 0 208 87" fill="none" xmlns="http://www.w3.org/2000/svg">
<path d="M62.5725 8.25336C62.5725 10.8125 61.0349 12.9559 57.9597 14.6833C56.6212 15.4351 55.705 15.8109 55.2111 15.8109C55.0836 15.8109 55.0199 15.747 55.0199 15.619C55.0199 15.539 55.2509 15.4111 55.713 15.2351C57.4976 14.5314 58.9555 13.5317 60.0868 12.2361C61.2182 10.9245 61.7838 9.58094 61.7838 8.20538C61.7838 6.92579 61.3456 5.88612 60.4693 5.08637C59.5929 4.28663 58.4457 3.88676 57.0275 3.88676C52.4704 3.88676 48.3913 6.51792 44.7903 11.7802C44.1689 12.6919 42.2807 16.2028 39.1258 22.3129C35.7 28.8868 31.6687 32.9255 27.0319 34.429C28.4182 34.6049 29.5096 34.6929 30.3063 34.6929C33.2063 34.6929 35.6681 33.7412 37.6917 31.8378C39.4444 30.2063 41.0299 28.303 42.448 26.1276C42.6233 25.9037 42.7507 25.7918 42.8304 25.7918C42.8941 25.8077 42.926 25.8397 42.926 25.8877C42.926 26.0477 42.1771 27.0953 40.6793 29.0307C38.9107 31.318 37.2854 32.8935 35.8035 33.7572C34.3376 34.6049 32.5371 35.0288 30.4019 35.0288C29.0794 35.0288 27.6454 34.9168 26.0998 34.6929C24.9207 35.0128 23.8451 35.1728 22.8732 35.1728C22.0446 35.1728 21.6303 34.9968 21.6303 34.6449C21.6303 34.2451 22.2836 34.0451 23.5902 34.0451C24.3231 34.0451 25.2393 34.1411 26.3388 34.333C28.4421 33.4053 30.0434 32.2617 31.1429 30.9021C32.322 29.4306 34.0827 26.3516 36.425 21.6651L36.8074 20.8733H27.5099C26.0121 23.6724 24.7135 25.7438 23.6141 27.0873C22.5146 28.4309 21.0408 29.7345 19.1924 30.9981C15.1293 33.7812 11.2095 35.1728 7.43318 35.1728C5.2343 35.1728 3.44173 34.7089 2.05548 33.7812C0.685159 32.8375 0 31.6139 0 30.1104C0 29.3266 0.231042 28.6468 0.693126 28.071C1.17114 27.4952 1.74477 27.2073 2.41399 27.2073C3.4497 27.2073 3.96755 27.7351 3.96755 28.7908C3.96755 29.3026 3.80821 29.7425 3.48953 30.1104C3.17085 30.4783 2.7725 30.6622 2.29449 30.6622C1.54559 30.6622 1.17114 30.2863 1.17114 29.5346C1.21895 29.1347 1.17114 28.9347 1.02774 28.9347C0.740928 28.9347 0.597522 29.3586 0.597522 30.2063C0.597522 31.5179 1.21098 32.5976 2.43789 33.4453C3.6648 34.277 5.2343 34.6929 7.14637 34.6929C10.5084 34.6929 13.4482 33.6932 15.9658 31.6939C18.4993 29.6785 21.3674 26.0717 24.5701 20.8733H17.2325L17.4238 20.3935H24.8808C25.072 20.0736 25.3987 19.5617 25.8608 18.858C29.2069 13.4197 32.3538 9.62092 35.3016 7.46161C35.923 6.99776 36.7516 6.50192 37.7873 5.97409C38.823 5.43026 39.4604 5.15835 39.6994 5.15835C39.795 5.19034 39.8428 5.25432 39.8428 5.35029C39.8428 5.44626 39.6835 5.55822 39.3648 5.68618C37.4049 6.48593 35.6522 7.86149 34.1066 9.81286C32.561 11.7642 30.4418 15.2911 27.7489 20.3935H37.0703C40.0499 15.0512 43.2845 10.9005 46.7741 7.94146C50.2795 4.96641 53.6973 3.47889 57.0275 3.47889C58.6687 3.47889 59.9992 3.92674 61.019 4.82246C62.0547 5.70218 62.5725 6.84581 62.5725 8.25336ZM31.5731 8.82918C31.5731 9.16507 31.103 9.83685 30.1629 10.8445C28.7607 12.364 27.4223 13.1238 26.1476 13.1238C25.2393 13.1238 24.4825 12.8039 23.877 12.1641C23.2715 11.5083 22.9688 10.7086 22.9688 9.76488C22.9688 8.88516 23.2954 7.78951 23.9487 6.47793C24.7613 4.84645 25.1676 3.71881 25.1676 3.09501C25.1676 2.27927 24.7852 1.62348 24.0204 1.12764C23.2556 0.631798 22.2517 0.383877 21.0089 0.383877C17.4556 0.383877 14.1175 1.82342 10.9944 4.7025C7.87136 7.56558 6.30984 10.6286 6.30984 13.8916C6.30984 15.571 6.81972 16.9466 7.83949 18.0182C8.85927 19.0739 10.1818 19.6017 11.807 19.6017C14.946 19.6017 17.5911 18.1462 19.7421 15.2351C19.774 15.1392 19.8218 15.0832 19.8855 15.0672C20.013 15.0672 20.0768 15.1392 20.0768 15.2831C20.0768 15.619 19.5669 16.2348 18.5471 17.1305C16.4438 19.0339 14.1653 19.9856 11.7114 19.9856C9.99057 19.9856 8.58839 19.4258 7.50488 18.3061C6.42137 17.1865 5.87962 15.731 5.87962 13.9395C5.87962 10.4846 7.47301 7.30167 10.6598 4.3906C13.8625 1.46353 17.36 0 21.1523 0C24.4825 0 26.1476 1.47153 26.1476 4.41459C26.1476 5.42227 25.805 6.62988 25.1198 8.03743C24.4347 9.44498 24.0921 10.3807 24.0921 10.8445C24.0921 12.0601 24.7454 12.6679 26.052 12.6679C26.8487 12.6679 27.7569 12.2921 28.7767 11.5403C29.7964 10.7886 30.5852 9.90084 31.1429 8.87716C31.2225 8.71721 31.3022 8.63724 31.3819 8.63724C31.5093 8.63724 31.5731 8.70122 31.5731 8.82918Z" fill="black"/>
<path d="M56.5973 26.4875C56.5973 26.7435 56.1273 27.3433 55.1872 28.287C53.785 29.6945 52.4943 30.3983 51.3152 30.3983C50.8213 30.3983 50.3831 30.3023 50.0007 30.1104C47.8974 33.1014 45.9216 34.5969 44.0732 34.5969C43.1172 34.5969 42.2966 34.2051 41.6115 33.4213C40.9422 32.6216 40.6076 31.6699 40.6076 30.5662C40.6076 28.103 42.2169 25.7278 45.4356 23.4405C47.6982 21.825 49.5625 21.0173 51.0284 21.0173C52.3987 21.0173 53.0839 21.753 53.0839 23.2246C53.0839 25.064 52.1199 27.2793 50.1919 29.8705C50.5106 30.0624 50.8691 30.1584 51.2674 30.1584C51.9844 30.1584 52.821 29.8225 53.777 29.1507C54.733 28.4789 55.5138 27.6712 56.1193 26.7275C56.2946 26.5035 56.422 26.3916 56.5017 26.3916C56.5654 26.3916 56.5973 26.4236 56.5973 26.4875ZM52.7254 23.2726C52.7254 21.977 52.1438 21.3292 50.9806 21.3292C49.5306 21.3292 47.762 22.7207 45.6746 25.5038C43.5873 28.287 42.5436 30.6302 42.5436 32.5336C42.5436 33.6372 43.0694 34.1891 44.1211 34.1891C45.8419 34.1891 47.7221 32.7655 49.7617 29.9184C49.2996 29.4066 49.0685 28.8788 49.0685 28.3349C49.0685 27.5512 49.3792 26.7435 50.0007 25.9117C50.6221 25.08 51.2276 24.6641 51.8171 24.6641C52.0721 24.6641 52.2474 24.8241 52.343 25.144C52.5979 24.5841 52.7254 23.9603 52.7254 23.2726Z" fill="black"/>
<path d="M83.2229 26.5355C83.207 26.5835 83.1273 26.7115 82.9839 26.9194L81.9562 28.3349C78.9606 32.5096 76.7458 34.5969 75.3117 34.5969C74.5628 34.5969 73.9494 34.317 73.4714 33.7572C72.9933 33.1974 72.7543 32.4776 72.7543 31.5979C72.7543 30.7022 73.0571 29.7345 73.6626 28.6948C73.7741 28.5029 74.3557 27.6472 75.4073 26.1276C76.7458 24.2083 77.415 22.9527 77.415 22.3609C77.415 21.7051 77.0883 21.3772 76.4351 21.3772C74.3318 21.3772 70.7227 25.7118 65.608 34.381C65.2893 34.317 64.8511 34.285 64.2934 34.285C63.6401 34.285 63.0824 34.317 62.6203 34.381L66.0143 28.9827C68.2291 25.4319 69.3365 23.2566 69.3365 22.4568C69.3365 21.7371 69.0417 21.3772 68.4522 21.3772C67.5758 21.3772 66.1417 22.6408 64.15 25.168C62.1583 27.6951 60.1825 30.7662 58.2226 34.381C57.8561 34.317 57.386 34.285 56.8124 34.285C56.191 34.285 55.6493 34.317 55.1872 34.381L58.605 28.9827C60.9632 25.2719 62.1423 22.9767 62.1423 22.0969C62.1423 21.6171 61.9591 21.3772 61.5926 21.3772C60.8118 21.3772 59.1945 23.0966 56.7407 26.5355C56.5814 26.7594 56.4539 26.8714 56.3583 26.8714C56.2946 26.8554 56.2627 26.8074 56.2627 26.7275C56.2627 26.5835 56.9957 25.5838 58.4616 23.7284C59.8956 21.921 61.0031 21.0173 61.7838 21.0173C62.2937 21.0173 62.7319 21.2652 63.0984 21.761C63.4648 22.2409 63.6481 22.8167 63.6481 23.4885C63.6481 24.4162 63.178 25.7038 62.2379 27.3513C65.106 23.1286 67.2412 21.0173 68.6434 21.0173C69.3126 21.0173 69.8623 21.2892 70.2925 21.833C70.7227 22.3768 70.9379 23.0566 70.9379 23.8724C70.9379 24.7841 70.5156 25.9437 69.6711 27.3513C72.6986 23.1286 74.9691 21.0173 76.4829 21.0173C77.168 21.0173 77.7416 21.3132 78.2037 21.905C78.6817 22.4968 78.9208 23.2166 78.9208 24.0643C78.9208 25.056 78.5304 26.2156 77.7496 27.5432C77.7337 27.5592 77.0485 28.5829 75.6941 30.6142C74.9134 31.7658 74.523 32.6456 74.523 33.2534C74.523 33.9092 74.8496 34.2371 75.5029 34.2371C76.7458 34.2371 78.8012 32.2217 81.6694 28.191L82.4103 27.1593L82.8405 26.6315C82.9202 26.4715 82.9998 26.3916 83.0795 26.3916C83.1751 26.3916 83.2229 26.4395 83.2229 26.5355Z" fill="black"/>
<path d="M95.3168 26.5355C95.3168 26.5835 95.1734 26.7914 94.8866 27.1593L93.8588 28.4549C90.5605 32.5496 87.7322 34.5969 85.374 34.5969C84.2586 34.5969 83.3185 34.1971 82.5537 33.3973C81.8048 32.5816 81.4304 31.5659 81.4304 30.3503C81.4304 27.4712 83.4301 24.936 87.4295 22.7447C89.5328 21.5931 91.2457 21.0173 92.5682 21.0173C93.1418 21.0173 93.6278 21.1932 94.0261 21.5451C94.4404 21.881 94.6475 22.2969 94.6475 22.7927C94.6475 23.9443 93.8987 24.928 92.4009 25.7438C90.9031 26.5435 88.4014 27.2953 84.896 27.999C83.8125 29.6465 83.2707 31.0221 83.2707 32.1257C83.2707 33.5013 84.0116 34.1891 85.4935 34.1891C88.0111 34.1891 91.0943 31.7179 94.7431 26.7754C94.9344 26.5195 95.0937 26.3916 95.2212 26.3916C95.2849 26.4076 95.3168 26.4555 95.3168 26.5355ZM93.3091 22.0969C93.3091 21.5851 93.0303 21.3292 92.4726 21.3292C91.6281 21.3292 90.5127 21.921 89.1264 23.1046C87.7561 24.2722 86.4097 25.7918 85.0872 27.6632C87.3817 27.0713 89.3256 26.2396 90.919 25.168C92.5124 24.0803 93.3091 23.0566 93.3091 22.0969Z" fill="black"/>
<path d="M104.15 34.0451C104.068 34.0451 104.028 33.9634 104.028 33.8001C104.028 33.6367 104.068 33.555 104.15 33.555C104.963 33.555 105.56 33.487 105.94 33.3508C106.32 33.1875 106.577 32.9152 106.713 32.534C106.876 32.1528 106.957 31.5538 106.957 30.737V21.5479C106.957 20.84 106.889 20.3499 106.754 20.0776C106.618 19.7781 106.36 19.5876 105.981 19.5059C105.601 19.397 104.936 19.3425 103.987 19.3425C103.906 19.3425 103.865 19.2608 103.865 19.0975C103.865 18.9069 103.906 18.8116 103.987 18.8116C105.099 18.8116 105.845 18.6891 106.225 18.444C106.632 18.1718 106.849 17.6817 106.876 16.9738C107.011 12.563 107.811 9.36381 109.276 7.37623C110.768 5.38866 112.951 4.39487 115.826 4.39487C117.21 4.39487 118.335 4.61269 119.203 5.04832C120.098 5.45673 120.546 5.96043 120.546 6.55942C120.546 6.96783 120.397 7.29455 120.098 7.53959C119.827 7.75741 119.502 7.86632 119.122 7.86632C118.796 7.86632 118.512 7.78464 118.267 7.62128C118.05 7.45791 117.806 7.18564 117.535 6.80446C117.101 6.2327 116.64 5.81068 116.152 5.53841C115.691 5.23891 115.108 5.08916 114.402 5.08916C112.829 5.08916 111.582 6.00127 110.659 7.82548C109.737 9.64969 109.276 12.4132 109.276 16.1161V30.737C109.276 31.5811 109.371 32.1937 109.561 32.5749C109.751 32.956 110.117 33.2147 110.659 33.3508C111.202 33.487 112.07 33.555 113.263 33.555C113.345 33.555 113.385 33.6367 113.385 33.8001C113.385 33.9634 113.345 34.0451 113.263 34.0451L110.659 34.0043C110.09 33.977 109.222 33.9634 108.055 33.9634L105.777 34.0043C105.397 34.0315 104.855 34.0451 104.15 34.0451ZM114.362 20.2818C112.626 19.8462 110.592 19.6284 108.259 19.6284V18.7299C109.913 18.7299 111.988 18.5938 114.484 18.3215C114.565 18.3215 114.633 18.4168 114.687 18.6074C114.741 18.798 114.768 19.0294 114.768 19.3017C114.768 19.5195 114.728 19.7509 114.646 19.996C114.565 20.2138 114.47 20.3091 114.362 20.2818Z" fill="black"/>
<path d="M124.642 34.576C123.069 34.576 121.672 34.1949 120.452 33.4325C119.258 32.6429 118.336 31.5947 117.685 30.2878C117.034 28.9537 116.709 27.5106 116.709 25.9587C116.709 24.1889 117.129 22.6914 117.97 21.4662C118.838 20.2138 119.936 19.2881 121.265 18.6891C122.622 18.0628 123.991 17.7497 125.375 17.7497C126.975 17.7497 128.372 18.1445 129.565 18.9341C130.758 19.7237 131.667 20.7719 132.291 22.0788C132.942 23.3585 133.267 24.7199 133.267 26.1629C133.267 27.851 132.874 29.3348 132.088 30.6145C131.301 31.867 130.243 32.8471 128.914 33.555C127.612 34.2357 126.188 34.576 124.642 34.576ZM125.822 33.8001C127.314 33.8001 128.467 33.2691 129.28 32.2073C130.094 31.1454 130.501 29.5118 130.501 27.3064C130.501 25.6183 130.216 24.1072 129.646 22.7731C129.104 21.439 128.345 20.4044 127.368 19.6692C126.392 18.9069 125.28 18.5257 124.032 18.5257C122.567 18.5257 121.428 19.0566 120.614 20.1185C119.828 21.1803 119.435 22.7051 119.435 24.6926C119.435 26.3535 119.706 27.8782 120.248 29.2668C120.791 30.6553 121.55 31.758 122.527 32.5749C123.503 33.3917 124.602 33.8001 125.822 33.8001Z" fill="black"/>
<path d="M140.368 22.5281C141.805 20.7311 142.917 19.5195 143.704 18.8933C144.49 18.2398 145.223 17.9131 145.901 17.9131C146.497 17.9131 147.067 18.0765 147.609 18.4032C148.152 18.7299 148.423 19.1247 148.423 19.5876C148.423 19.9415 148.301 20.241 148.057 20.4861C147.813 20.7311 147.487 20.8536 147.081 20.8536C146.836 20.8536 146.619 20.8128 146.43 20.7311C146.267 20.6222 146.063 20.4724 145.819 20.2818C145.575 20.064 145.345 19.9007 145.128 19.7918C144.911 19.6829 144.653 19.6284 144.355 19.6284C143.948 19.6284 143.5 19.8326 143.012 20.241C142.524 20.6494 141.697 21.5615 140.53 22.9773L140.368 22.5281ZM136.543 34.0451C136.462 34.0451 136.421 33.9634 136.421 33.8001C136.421 33.6367 136.462 33.555 136.543 33.555C137.276 33.555 137.818 33.487 138.171 33.3508C138.523 33.1875 138.754 32.9152 138.862 32.534C138.998 32.1528 139.066 31.5538 139.066 30.737V22.6506C139.066 21.7249 138.957 21.0578 138.74 20.6494C138.523 20.241 138.157 20.0368 137.642 20.0368C137.208 20.0368 136.475 20.241 135.445 20.6494H135.363C135.255 20.6494 135.173 20.595 135.119 20.4861C135.092 20.3499 135.133 20.2546 135.241 20.2002L139.961 17.9539C140.015 17.9267 140.096 17.9131 140.205 17.9131C140.449 17.9131 140.707 18.2262 140.978 18.8524C141.249 19.4787 141.385 20.2818 141.385 21.262V30.737C141.385 31.5538 141.48 32.1528 141.669 32.534C141.886 32.9152 142.266 33.1875 142.809 33.3508C143.351 33.487 144.192 33.555 145.331 33.555C145.44 33.555 145.494 33.6367 145.494 33.8001C145.494 33.9634 145.44 34.0451 145.331 34.0451C144.463 34.0451 143.772 34.0315 143.256 34.0043L140.245 33.9634L138.008 34.0043C137.655 34.0315 137.167 34.0451 136.543 34.0451Z" fill="black"/>
<path d="M166.716 34.5352C165.577 34.5352 164.642 34.2765 163.909 33.7592C163.177 33.2419 162.811 32.3843 162.811 31.1863V21.5887C162.811 20.8808 162.756 20.3771 162.648 20.0776C162.567 19.7781 162.39 19.5876 162.119 19.5059C161.848 19.397 161.387 19.3425 160.736 19.3425C160.627 19.3425 160.573 19.2608 160.573 19.0975C160.573 18.9069 160.627 18.8116 160.736 18.8116C161.821 18.7844 162.702 18.4985 163.38 17.9539C164.058 17.3822 164.452 16.6334 164.56 15.7077C164.56 15.626 164.669 15.5852 164.886 15.5852C165.075 15.5852 165.17 15.626 165.17 15.7077V29.7977C165.17 32.0031 166.242 33.1058 168.385 33.1058C169.632 33.1058 170.717 32.7246 171.639 31.9622L171.721 31.9214C171.829 31.9214 171.911 31.9895 171.965 32.1256C172.019 32.2345 172.005 32.3162 171.924 32.3707C170.921 33.1602 170.012 33.7184 169.198 34.0451C168.412 34.3718 167.584 34.5352 166.716 34.5352ZM170.663 20.2818C168.927 19.8462 166.866 19.6284 164.479 19.6284V18.7299C166.188 18.7299 168.303 18.5938 170.826 18.3215C170.88 18.3215 170.934 18.4304 170.988 18.6482C171.07 18.8388 171.11 19.0566 171.11 19.3017C171.11 19.5195 171.056 19.7509 170.948 19.996C170.866 20.2138 170.771 20.3091 170.663 20.2818Z" fill="black"/>
<path d="M173.873 34.0451C173.791 34.0451 173.75 33.9634 173.75 33.8001C173.75 33.6367 173.791 33.555 173.873 33.555C174.605 33.555 175.147 33.487 175.5 33.3508C175.853 33.1875 176.097 32.9152 176.232 32.534C176.368 32.1256 176.436 31.5266 176.436 30.737V9.62246C176.436 8.64229 176.341 7.93439 176.151 7.49875C175.961 7.06312 175.622 6.84531 175.134 6.84531C174.727 6.84531 174.103 7.0359 173.262 7.41707L173.181 7.45791C173.1 7.45791 173.032 7.38985 172.977 7.25371C172.923 7.11758 172.95 7.02228 173.059 6.96783L178.226 4.43571H178.348C178.456 4.43571 178.538 4.47655 178.592 4.55823C178.673 4.61269 178.714 4.68076 178.714 4.76244V30.737C178.714 31.5538 178.782 32.1528 178.917 32.534C179.053 32.9152 179.297 33.1875 179.65 33.3508C180.002 33.487 180.545 33.555 181.277 33.555C181.359 33.555 181.399 33.6367 181.399 33.8001C181.399 33.9634 181.359 34.0451 181.277 34.0451C180.653 34.0451 180.152 34.0315 179.772 34.0043L177.575 33.9634L175.378 34.0043C174.998 34.0315 174.496 34.0451 173.873 34.0451ZM184.817 34.0451C184.735 34.0451 184.695 33.9634 184.695 33.8001C184.695 33.6367 184.735 33.555 184.817 33.555C185.549 33.555 186.092 33.487 186.444 33.3508C186.797 33.1875 187.041 32.9152 187.176 32.534C187.312 32.1256 187.38 31.5266 187.38 30.737V24.2434C187.38 22.637 187.068 21.439 186.444 20.6494C185.847 19.8598 184.912 19.465 183.637 19.465C182.633 19.465 181.616 19.7918 180.586 20.4452C179.555 21.0714 178.673 21.9291 177.941 23.0182L177.778 22.5281C178.999 20.9217 180.179 19.7509 181.318 19.0158C182.484 18.2534 183.705 17.8723 184.98 17.8723C186.471 17.8723 187.624 18.2943 188.438 19.1383C189.251 19.9824 189.658 21.2076 189.658 22.814V30.737C189.658 31.5538 189.726 32.1528 189.862 32.534C189.997 32.9152 190.241 33.1875 190.594 33.3508C190.947 33.487 191.489 33.555 192.221 33.555C192.303 33.555 192.343 33.6367 192.343 33.8001C192.343 33.9634 192.303 34.0451 192.221 34.0451C191.598 34.0451 191.096 34.0315 190.716 34.0043L188.519 33.9634L186.322 34.0043C185.942 34.0315 185.441 34.0451 184.817 34.0451Z" fill="black"/>
<path d="M202.027 34.5352C200.454 34.5352 199.112 34.1676 198 33.4325C196.888 32.6974 196.033 31.7308 195.436 30.5328C194.867 29.3348 194.582 28.0552 194.582 26.6938C194.582 25.0874 194.962 23.6172 195.721 22.283C196.481 20.9217 197.511 19.8598 198.813 19.0975C200.142 18.3079 201.593 17.9131 203.167 17.9131C204.686 17.9131 205.852 18.3215 206.666 19.1383C207.479 19.9551 207.886 21.0987 207.886 22.5689C207.886 22.9501 207.845 23.2224 207.764 23.3857C207.71 23.5491 207.588 23.6308 207.398 23.6308H205.119L205.16 22.8956C205.16 21.5343 204.862 20.4997 204.265 19.7918C203.668 19.0839 202.855 18.7299 201.824 18.7299C200.386 18.7299 199.261 19.3017 198.447 20.4452C197.661 21.5887 197.267 23.1543 197.267 25.1419C197.267 27.5106 197.823 29.4301 198.935 30.9004C200.047 32.3707 201.607 33.1058 203.614 33.1058C204.428 33.1058 205.119 32.9969 205.689 32.7791C206.286 32.5612 206.95 32.2209 207.683 31.758H207.723C207.805 31.758 207.873 31.8125 207.927 31.9214C208.008 32.0031 208.022 32.0848 207.967 32.1665C206.123 33.7456 204.143 34.5352 202.027 34.5352ZM196.494 23.1407L205.73 22.9773V23.6308L196.535 23.6716L196.494 23.1407Z" fill="black"/>
<path d="M50.7948 53.3882C50.7948 52.5714 50.6998 51.9724 50.51 51.5912C50.3472 51.1828 50.0217 50.8969 49.5335 50.7336C49.0453 50.5702 48.2723 50.4885 47.2145 50.4885C47.1331 50.4885 47.0924 50.4069 47.0924 50.2435C47.0924 50.0801 47.1331 49.9985 47.2145 49.9985L49.1674 50.0393C50.3608 50.0937 51.3508 50.121 52.1374 50.121C52.8697 50.121 53.8054 50.0937 54.9446 50.0393L56.9382 49.9985C57.0196 49.9985 57.0602 50.0801 57.0602 50.2435C57.0602 50.4069 57.0196 50.4885 56.9382 50.4885C55.9075 50.4885 55.148 50.5702 54.6598 50.7336C54.1716 50.8697 53.8326 51.1284 53.6427 51.5096C53.48 51.8907 53.3986 52.4897 53.3986 53.3065V72.2157C53.3986 73.0325 53.48 73.6451 53.6427 74.0535C53.8326 74.4347 54.1716 74.6934 54.6598 74.8295C55.148 74.9657 55.9075 75.0337 56.9382 75.0337C57.0196 75.0337 57.0602 75.1154 57.0602 75.2788C57.0602 75.4421 57.0196 75.5238 56.9382 75.5238C56.0974 75.5238 55.4328 75.5102 54.9446 75.483L52.1374 75.4421L49.1674 75.483C48.6791 75.5102 48.0282 75.5238 47.2145 75.5238C47.1331 75.5238 47.0924 75.4421 47.0924 75.2788C47.0924 75.1154 47.1331 75.0337 47.2145 75.0337C48.2723 75.0337 49.0453 74.9657 49.5335 74.8295C50.0217 74.6934 50.3472 74.4347 50.51 74.0535C50.6998 73.6451 50.7948 73.0325 50.7948 72.2157V53.3882ZM33.7478 61.8014H51.9339V62.659H33.7478V61.8014ZM32.5679 53.3065C32.5679 52.4897 32.473 51.8907 32.2831 51.5096C32.1204 51.1284 31.7949 50.8697 31.3067 50.7336C30.8185 50.5702 30.059 50.4885 29.0283 50.4885C28.9741 50.4885 28.947 50.4069 28.947 50.2435C28.947 50.0801 28.9741 49.9985 29.0283 49.9985L31.1033 50.0393C32.2424 50.0937 33.1511 50.121 33.8292 50.121C34.6157 50.121 35.6057 50.0937 36.7992 50.0393L38.752 49.9985C38.8063 49.9985 38.8334 50.0801 38.8334 50.2435C38.8334 50.4069 38.8063 50.4885 38.752 50.4885C37.7213 50.4885 36.9483 50.5702 36.433 50.7336C35.9448 50.8969 35.6057 51.1828 35.4159 51.5912C35.2531 51.9724 35.1718 52.5714 35.1718 53.3882V72.2157C35.1718 73.0325 35.2531 73.6451 35.4159 74.0535C35.6057 74.4347 35.9448 74.6934 36.433 74.8295C36.9212 74.9657 37.6942 75.0337 38.752 75.0337C38.8063 75.0337 38.8334 75.1154 38.8334 75.2788C38.8334 75.4421 38.8063 75.5238 38.752 75.5238C37.9112 75.5238 37.2467 75.5102 36.7585 75.483L33.8292 75.4421L31.0219 75.483C30.5337 75.5102 29.8556 75.5238 28.9876 75.5238C28.9334 75.5238 28.9063 75.4421 28.9063 75.2788C28.9063 75.1154 28.9334 75.0337 28.9876 75.0337C30.0183 75.0337 30.7778 74.9657 31.266 74.8295C31.7813 74.6934 32.1204 74.4347 32.2831 74.0535C32.473 73.6451 32.5679 73.0325 32.5679 72.2157V53.3065Z" fill="black"/>
<path d="M67.8332 76.0547C66.26 76.0547 64.8632 75.6736 63.6426 74.9112C62.4492 74.1216 61.527 73.0734 60.876 71.7665C60.2251 70.4324 59.8996 68.9893 59.8996 67.4374C59.8996 65.6676 60.32 64.1701 61.1608 62.9449C62.0288 61.6925 63.1273 60.7667 64.4563 60.1678C65.8125 59.5415 67.1822 59.2284 68.5655 59.2284C70.1658 59.2284 71.5626 59.6232 72.756 60.4128C73.9495 61.2024 74.8581 62.2506 75.4819 63.5575C76.1329 64.8372 76.4584 66.1985 76.4584 67.6416C76.4584 69.3297 76.0651 70.8135 75.2785 72.0932C74.4919 73.3456 73.4341 74.3258 72.1051 75.0337C70.8032 75.7144 69.3792 76.0547 67.8332 76.0547ZM69.013 75.2788C70.5048 75.2788 71.6575 74.7478 72.4712 73.686C73.2849 72.6241 73.6918 70.9905 73.6918 68.7851C73.6918 67.097 73.407 65.5859 72.8374 64.2518C72.2949 62.9177 71.5355 61.8831 70.559 61.1479C69.5826 60.3856 68.4706 60.0044 67.2229 60.0044C65.7582 60.0044 64.619 60.5353 63.8053 61.5972C63.0188 62.659 62.6255 64.1837 62.6255 66.1713C62.6255 67.8322 62.8967 69.3569 63.4392 70.7455C63.9817 72.134 64.7411 73.2367 65.7175 74.0535C66.694 74.8704 67.7925 75.2788 69.013 75.2788Z" fill="black"/>
<path d="M79.5307 75.5238C79.4493 75.5238 79.4086 75.4421 79.4086 75.2788C79.4086 75.1154 79.4493 75.0337 79.5307 75.0337C80.263 75.0337 80.8055 74.9657 81.1581 74.8295C81.5107 74.6662 81.7548 74.3939 81.8904 74.0127C82.026 73.6043 82.0938 73.0053 82.0938 72.2157V51.1012C82.0938 50.121 81.9989 49.4131 81.8091 48.9774C81.6192 48.5418 81.2802 48.324 80.7919 48.324C80.3851 48.324 79.7613 48.5146 78.9204 48.8958H78.8391C78.7577 48.8958 78.6899 48.8277 78.6356 48.6916C78.6085 48.5554 78.6356 48.4737 78.717 48.4465L83.9247 45.9552C83.9789 45.928 84.0467 45.9144 84.1281 45.9144C84.2095 45.9144 84.2908 45.9552 84.3722 46.0369C84.4536 46.0914 84.4943 46.1594 84.4943 46.2411V72.2157C84.4943 73.0053 84.5485 73.5907 84.657 73.9719C84.7926 74.353 85.0367 74.6253 85.3893 74.7887C85.7419 74.952 86.2844 75.0337 87.0167 75.0337C87.0981 75.0337 87.1388 75.1154 87.1388 75.2788C87.1388 75.4421 87.0981 75.5238 87.0167 75.5238C86.42 75.5238 85.9318 75.5102 85.5521 75.483L83.2737 75.4421L81.0767 75.483C80.697 75.5102 80.1817 75.5238 79.5307 75.5238Z" fill="black"/>
<path d="M90.5487 75.5238C90.4944 75.5238 90.4673 75.4421 90.4673 75.2788C90.4673 75.1154 90.4944 75.0337 90.5487 75.0337C91.281 75.0337 91.8235 74.9657 92.1761 74.8295C92.5558 74.6662 92.8135 74.3939 92.9491 74.0127C93.0847 73.6315 93.1525 73.0325 93.1525 72.2157V64.5785C93.1525 63.5984 93.044 62.8905 92.827 62.4548C92.6372 62.0192 92.2981 61.8014 91.8099 61.8014C91.3217 61.8014 90.7114 61.992 89.9791 62.3731H89.9384C89.8299 62.3731 89.7486 62.3051 89.6943 62.1689C89.6401 62.0328 89.6536 61.9375 89.735 61.8831L95.024 59.4326L95.1868 59.3918C95.241 59.3918 95.3088 59.4326 95.3902 59.5143C95.4716 59.5688 95.5122 59.6368 95.5122 59.7185C95.5122 59.9091 95.4987 60.4536 95.4716 61.3521C95.4444 62.2506 95.4309 63.3125 95.4309 64.5377V72.2157C95.4309 73.0325 95.4987 73.6315 95.6343 74.0127C95.7699 74.3939 96.014 74.6662 96.3666 74.8295C96.7192 74.9657 97.2617 75.0337 97.994 75.0337C98.0754 75.0337 98.1161 75.1154 98.1161 75.2788C98.1161 75.4421 98.0754 75.5238 97.994 75.5238C97.3702 75.5238 96.8684 75.5102 96.4887 75.483L94.2917 75.4421L92.0947 75.483C91.715 75.5102 91.1996 75.5238 90.5487 75.5238ZM93.9662 54.6134C93.4238 54.6134 92.9898 54.4637 92.6643 54.1642C92.3388 53.8647 92.1761 53.4427 92.1761 52.8981C92.1761 52.3536 92.3388 51.9316 92.6643 51.6321C92.9898 51.3326 93.4238 51.1828 93.9662 51.1828C94.5087 51.1828 94.9291 51.3326 95.2274 51.6321C95.5258 51.9316 95.675 52.3536 95.675 52.8981C95.675 53.4427 95.5258 53.8647 95.2274 54.1642C94.9291 54.4637 94.5087 54.6134 93.9662 54.6134Z" fill="black"/>
<path d="M107.329 76.0547C106.189 76.0547 105.132 75.728 104.155 75.0746C103.206 74.4211 102.433 73.509 101.836 72.3382C101.267 71.1403 100.982 69.7789 100.982 68.2542C100.982 66.3211 101.456 64.6738 102.406 63.3125C103.355 61.9511 104.549 60.9301 105.986 60.2494C107.424 59.5688 108.848 59.2284 110.258 59.2284C112.129 59.2284 113.784 59.841 115.222 61.0662L114.774 63.8026C114.042 62.6046 113.242 61.6789 112.374 61.0254C111.506 60.372 110.434 60.0452 109.159 60.0452C107.451 60.0452 106.095 60.6578 105.091 61.8831C104.115 63.081 103.626 64.7963 103.626 67.029C103.626 68.5265 103.857 69.847 104.318 70.9905C104.779 72.134 105.403 73.0189 106.189 73.6451C107.003 74.2714 107.912 74.5845 108.915 74.5845C110.027 74.5845 111.045 74.285 111.967 73.686C112.889 73.087 113.852 72.2293 114.855 71.113L115.181 71.3989C113.933 72.8147 112.713 73.9446 111.519 74.7887C110.326 75.6327 108.929 76.0547 107.329 76.0547ZM116.442 71.0313C116.442 72.0115 116.551 72.7194 116.768 73.1551C117.012 73.5907 117.391 73.8085 117.907 73.8085C118.693 73.8085 119.399 73.6179 120.022 73.2367L120.104 73.1959C120.212 73.1959 120.28 73.264 120.307 73.4001C120.361 73.5362 120.348 73.6315 120.266 73.686L115.791 75.8097C115.683 75.8641 115.574 75.8914 115.466 75.8914C115.113 75.8914 114.801 75.5646 114.53 74.9112C114.286 74.2577 114.164 73.3593 114.164 72.2157V51.142C114.164 50.1618 114.055 49.4539 113.838 49.0183C113.648 48.5826 113.309 48.3648 112.821 48.3648C112.469 48.3648 111.845 48.5554 110.95 48.9366H110.868C110.76 48.9366 110.678 48.8821 110.624 48.7732C110.597 48.6371 110.624 48.5418 110.706 48.4874L115.872 45.9552C115.927 45.928 115.995 45.9144 116.076 45.9144C116.157 45.9144 116.239 45.9552 116.32 46.0369C116.401 46.0914 116.442 46.1594 116.442 46.2411V71.0313Z" fill="black"/>
<path d="M133.111 75.7688C133.003 75.8233 132.894 75.8505 132.786 75.8505C132.379 75.8505 132.027 75.5374 131.728 74.9112C131.43 74.285 131.281 73.4546 131.281 72.4199V64.7011C131.281 61.6516 130.426 60.1269 128.717 60.1269C127.795 60.1269 127.09 60.44 126.602 61.0662C126.141 61.6652 125.829 62.3595 125.666 63.1491C125.558 63.6664 125.395 64.0748 125.178 64.3743C124.988 64.6738 124.635 64.8236 124.12 64.8236C123.686 64.8236 123.347 64.7011 123.103 64.456C122.886 64.211 122.777 63.9251 122.777 63.5984C122.777 62.9449 123.198 62.2915 124.039 61.638C124.88 60.9846 125.883 60.44 127.049 60.0044C128.216 59.5688 129.26 59.3509 130.182 59.3509C131.294 59.3509 132.135 59.7049 132.705 60.4128C133.274 61.1207 133.559 62.1417 133.559 63.4758V71.113C133.559 72.066 133.681 72.7603 133.925 73.1959C134.169 73.6315 134.563 73.8493 135.105 73.8493C135.647 73.8493 136.326 73.6724 137.139 73.3184H137.221C137.329 73.3184 137.397 73.3865 137.424 73.5226C137.451 73.6315 137.411 73.7132 137.302 73.7677L133.111 75.7688ZM125.788 75.8097C124.785 75.8097 123.998 75.551 123.428 75.0337C122.886 74.4892 122.615 73.8085 122.615 72.9917C122.615 72.1749 122.94 71.467 123.591 70.868C124.242 70.269 125.314 69.6972 126.805 69.1527L131.687 67.3148L131.81 67.8458L127.497 69.5202C126.737 69.8197 126.181 70.1737 125.829 70.5821C125.503 70.9633 125.341 71.4261 125.341 71.9707C125.341 72.6241 125.544 73.1823 125.951 73.6451C126.385 74.0808 126.941 74.2986 127.619 74.2986C128.161 74.2986 128.812 74.0808 129.572 73.6451L132.135 72.0932L132.216 72.6241L129.206 74.5845C128.528 75.0201 127.931 75.3332 127.416 75.5238C126.9 75.7144 126.358 75.8097 125.788 75.8097Z" fill="black"/>
<path d="M154.479 59.7593C154.561 59.7593 154.601 59.841 154.601 60.0044C154.601 60.1678 154.561 60.2494 154.479 60.2494C153.801 60.2494 153.205 60.4945 152.689 60.9846C152.201 61.4474 151.753 62.2506 151.347 63.3942L146.383 76.6673C145.379 79.3084 144.43 81.364 143.535 82.8343C142.667 84.3317 141.758 85.3936 140.809 86.0198C139.887 86.6733 138.816 87 137.595 87C136.998 87 136.51 86.8639 136.13 86.5916C135.724 86.3193 135.52 85.9245 135.52 85.4072C135.52 85.026 135.642 84.7265 135.886 84.5087C136.13 84.2909 136.429 84.182 136.781 84.182C137.134 84.182 137.432 84.2228 137.676 84.3045C137.921 84.3862 138.178 84.5223 138.449 84.7129C138.504 84.7402 138.653 84.8218 138.897 84.958C139.168 85.0941 139.494 85.1622 139.873 85.1622C140.551 85.1622 141.189 84.8491 141.786 84.2228C142.382 83.6238 143.02 82.6028 143.698 81.1598C144.403 79.7168 145.244 77.702 146.22 75.1154L146.18 76.2589L139.751 63.1491C139.128 61.9511 138.653 61.1752 138.327 60.8212C138.002 60.44 137.581 60.2494 137.066 60.2494C137.012 60.2494 136.985 60.1678 136.985 60.0044C136.985 59.841 137.012 59.7593 137.066 59.7593L138.449 59.8002C138.775 59.8274 139.222 59.841 139.792 59.841L142.396 59.8002C142.776 59.773 143.305 59.7593 143.983 59.7593C144.037 59.7593 144.064 59.841 144.064 60.0044C144.064 60.1678 144.037 60.2494 143.983 60.2494C142.409 60.2494 141.623 60.5625 141.623 61.1888C141.623 61.3521 141.691 61.5699 141.826 61.8422L147.4 73.3593L146.464 75.0337L150.451 63.5167C150.668 62.8632 150.777 62.3459 150.777 61.9647C150.777 61.3385 150.533 60.9029 150.045 60.6578C149.556 60.3856 148.756 60.2494 147.644 60.2494C147.59 60.2494 147.563 60.1678 147.563 60.0044C147.563 59.841 147.59 59.7593 147.644 59.7593C148.377 59.7593 148.933 59.773 149.312 59.8002L151.753 59.841L153.218 59.8002C153.489 59.773 153.91 59.7593 154.479 59.7593Z" fill="black"/>
<path d="M158.693 62.2506C158.693 63.2036 159.005 63.9659 159.629 64.5377C160.253 65.0822 161.175 65.6676 162.395 66.2938C163.345 66.7839 164.077 67.2059 164.592 67.5599C165.135 67.9138 165.596 68.3767 165.976 68.9485C166.355 69.5202 166.545 70.2145 166.545 71.0313C166.545 72.4199 166.03 73.5907 164.999 74.5436C163.969 75.4966 162.572 75.9731 160.809 75.9731C159.371 75.9731 158.069 75.5646 156.903 74.7478C156.74 74.6389 156.659 74.4756 156.659 74.2577L156.577 71.0722C156.577 70.9905 156.645 70.9497 156.781 70.9497C156.944 70.9224 157.039 70.9497 157.066 71.0313C157.581 72.4199 158.246 73.4682 159.059 74.1761C159.9 74.8567 160.863 75.1971 161.948 75.1971C162.789 75.1971 163.44 75.0065 163.901 74.6253C164.389 74.2169 164.633 73.6179 164.633 72.8283C164.633 72.066 164.457 71.4261 164.104 70.9088C163.779 70.3643 163.372 69.9423 162.884 69.6428C162.395 69.316 161.731 68.9349 160.89 68.4992C159.995 68.0636 159.276 67.6688 158.734 67.3148C158.218 66.9609 157.771 66.498 157.391 65.9263C157.039 65.3545 156.862 64.6466 156.862 63.8026C156.862 62.3323 157.405 61.216 158.49 60.4536C159.602 59.6641 160.904 59.2693 162.395 59.2693C163.48 59.2693 164.47 59.4735 165.365 59.8819C165.528 59.9363 165.623 60.0044 165.65 60.0861C165.704 60.1405 165.732 60.2222 165.732 60.3311C165.732 60.8757 165.718 61.2977 165.691 61.5972L165.65 63.3125C165.65 63.3669 165.569 63.3942 165.406 63.3942C165.243 63.3942 165.162 63.3669 165.162 63.3125C165.162 62.4412 164.701 61.6789 163.779 61.0254C162.884 60.372 161.934 60.0452 160.931 60.0452C160.226 60.0452 159.669 60.2358 159.263 60.617C158.883 60.971 158.693 61.5155 158.693 62.2506Z" fill="black"/>
</svg>
